/* XPM */
static char *a67961ac34a7424afd033d51278caac76bwU8lyVYK7VBozu[] = {
/* columns rows colors chars-per-pixel */
"16 16 95 2 ",
"   c None",
".  c #084590",
"X  c #094A93",
"o  c #0C4B90",
"O  c #0A4895",
"+  c #094C97",
"@  c #0D4E96",
"#  c #074A98",
"$  c #0A4D98",
"%  c #0C5196",
"&  c #0D509B",
"*  c #09519E",
"=  c #0C559C",
"-  c #115299",
";  c #014FAA",
":  c #004EAD",
">  c #0751A6",
",  c #0552A6",
"<  c #0954A1",
"1  c #0656A8",
"2  c #0454AD",
"3  c #0A5CAC",
"4  c #0157B5",
"5  c #0A57B2",
"6  c #0659B1",
"7  c #095BB1",
"8  c #0056B9",
"9  c #0E62A9",
"0  c #0B62B6",
"q  c #0861BC",
"w  c #0969BB",
"e  c #0C79B7",
"r  c #0E70B8",
"t  c #0061C6",
"y  c #0867C5",
"u  c #0A6CC3",
"i  c #0A6AC7",
"p  c #0263C8",
"a  c #0264CA",
"s  c #066CCA",
"d  c #0068CE",
"f  c #0F78C4",
"g  c #0D7FC4",
"h  c #0971CB",
"j  c #0D70C8",
"k  c #0C76CE",
"l  c #127EC6",
"z  c #076FD0",
"x  c #006BD5",
"c  c #0B6FD0",
"v  c #0068D9",
"b  c #0270D6",
"n  c #0C79DB",
"m  c #0E7DD8",
"M  c #097ADE",
"N  c #117AD1",
"B  c #107DD0",
"V  c #107CDF",
"C  c #006FE3",
"Z  c #0072E0",
"A  c #0170E6",
"S  c #0075E4",
"D  c #0478E5",
"F  c #037EE7",
"G  c #0077E9",
"H  c #0275EB",
"J  c #0177ED",
"K  c #027BF0",
"L  c #007FF8",
"P  c #0980C4",
"I  c #1282CD",
"U  c #0E82D5",
"Y  c #0085DE",
"T  c #1081D6",
"R  c #1585D7",
"E  c #1083DB",
"W  c #1285DA",
"Q  c #0685E2",
"!  c #0686E5",
"~  c #0D86E6",
"^  c #0781EF",
"/  c #0686ED",
"(  c #0889EA",
")  c #088AEF",
"_  c #1188E1",
"`  c #1288E8",
"'  c #0080F3",
"]  c #0083F6",
"[  c #0584F5",
"{  c #0B87F1",
"}  c #058BF6",
"|  c #008EF5",
" . c #0089FF",
".. c #008CFD",
"X. c #1092F6",
/* pixels */
"                R               ",
"            I Q ( U W           ",
"        g ! ..T     E N         ",
"      P _   X.        K s       ",
"    e |           G C x v 0     ",
"    Y }         A G /   z 8 %   ",
"  l  .[   ^ J C F         a #   ",
"  f ] L n   {   )         j ;   ",
"  r ] S Z x c D             2   ",
"  k M i d t 7 V             ,   ",
"  9 w             B       h .   ",
"    < `           y       1     ",
"      & ~         6 : p > @     ",
"        o u       m 4 O -       ",
"          O * 7 q 3 =           ",
"              $ $               "
};
