/* XPM */
static char *_fbb54bc33d34e63b90092a17cbec88cWZORLedhn3KExD0u[] = {
/* columns rows colors chars-per-pixel */
"32 32 163 2 ",
"   c None",
".  c #114B7B",
"X  c #184F7E",
"o  c #084687",
"O  c #0F4C87",
"+  c #07448C",
"@  c #0D4B8B",
"#  c #124A82",
"$  c #114E8D",
"%  c #0F528E",
"&  c #195182",
"*  c #13518C",
"=  c #0C4C93",
"-  c #074A9A",
";  c #0B4E9A",
":  c #114E90",
">  c #0D5195",
",  c #0D5996",
"<  c #0D539A",
"1  c #135392",
"2  c #185291",
"3  c #175F96",
"4  c #13559C",
"5  c #115E9E",
"6  c #0B679E",
"7  c #0D6C9B",
"8  c #024EA5",
"9  c #004EAC",
"0  c #0754A6",
"q  c #0A54A2",
"w  c #0958A6",
"e  c #0051AC",
"r  c #0A57AA",
"t  c #0758AA",
"y  c #0A5BAB",
"u  c #135DA0",
"i  c #004FB2",
"p  c #0154B3",
"a  c #0258B5",
"s  c #0A5FB4",
"d  c #0054BB",
"f  c #035CBC",
"g  c #0A61A7",
"h  c #0B6BAC",
"j  c #1167A2",
"k  c #126BA6",
"l  c #166DAB",
"z  c #1378AC",
"x  c #0761BA",
"c  c #0A62BC",
"v  c #0E6EBC",
"b  c #146EB4",
"n  c #1263BC",
"m  c #1768BE",
"M  c #0C72BC",
"N  c #1272B5",
"B  c #167CBD",
"V  c #1878BA",
"C  c #025CC1",
"Z  c #005DC8",
"A  c #0263C4",
"S  c #0B67C4",
"D  c #0B6CC3",
"F  c #0064CA",
"G  c #046ACD",
"H  c #0A6ECD",
"J  c #0E75C4",
"K  c #0F7AC5",
"L  c #0D74C8",
"P  c #0C7ECB",
"I  c #1472C1",
"U  c #137EC4",
"Y  c #187DC0",
"T  c #1177CE",
"R  c #0066D1",
"E  c #016CD3",
"W  c #0A6ED7",
"Q  c #016EDA",
"!  c #0472D4",
"~  c #0D73D4",
"^  c #077ED3",
"/  c #0E7CD2",
"(  c #0173DB",
")  c #0679DF",
"_  c #0B7DDE",
"`  c #127ED5",
"'  c #137DDC",
"]  c #006DE3",
"[  c #0074E2",
"{  c #047AE4",
"}  c #0A7DE1",
"|  c #0075EA",
" . c #027BEB",
".. c #0C7EEB",
"X. c #007BF3",
"o. c #007CFC",
"O. c #2085B7",
"+. c #0D82C1",
"@. c #0F82CE",
"#. c #1580C7",
"$. c #1482CB",
"%. c #0582DB",
"&. c #0B82DE",
"*. c #0E89DD",
"=. c #1384D3",
"-. c #1A82D1",
";. c #1589D7",
":. c #1181DC",
">. c #1A83DB",
",. c #168ADC",
"<. c #0787E1",
"1. c #0C82E3",
"2. c #0B8AE6",
"3. c #0684EC",
"4. c #0A81E9",
"5. c #0D8BEC",
"6. c #1B8EE1",
"7. c #0C90EF",
"8. c #1E92E1",
"9. c #1694E8",
"0. c #1B91EA",
"q. c #0080F0",
"w. c #0182F3",
"e. c #0282F3",
"r. c #0185F0",
"t. c #0187F3",
"y. c #0584F1",
"u. c #038BF6",
"i. c #058CF6",
"p. c #0A8EF3",
"a. c #0082F9",
"s. c #0084F9",
"d. c #0184F9",
"f. c #0084FF",
"g. c #0284FE",
"h. c #0086FF",
"j. c #0287FE",
"k. c #0287FF",
"l. c #008FF9",
"z. c #048CFB",
"x. c #0189FE",
"c. c #0088FF",
"v. c #0089FF",
"b. c #008AFF",
"n. c #008BFF",
"m. c #018BFF",
"M. c #018CFC",
"N. c #008CFF",
"B. c #008DFF",
"V. c #008EFF",
"C. c #008FFF",
"Z. c #058EFC",
"A. c #008CFF",
"S. c #098FFE",
"D. c #0490F2",
"F. c #0090FF",
"G. c #0092FF",
"H. c #0093FF",
"J. c #0095FF",
"K. c #0294FF",
"L. c #0097FF",
"P. c #1093FF",
"I. c #1195FC",
/* pixels */
"                                                                ",
"                              =.0.                              ",
"                        ,.#.U $.P ,.U $.                        ",
"                  9.$.B $.U %.t.r.Z.^ P U B :.                  ",
"                *.z B 1.m.H.p.I.2.2.S.C.m.} V N '               ",
"              $.  <.H.m.m.C.;.            y.f./ l T             ",
"            +.  L.Z.    5.i.:.              ' o.}   D           ",
"          @.  F.P.        5.-.          .. .[ ( | W 3 H         ",
"        *.  D.L.            O.      ' X. .[ ( ( E [ D 5 S       ",
"        6 P L.5.                  1.X.[ ! E E F F A ] < ,       ",
"      +.7 L.m.    8.            ..| ( E [ { } } E f A A O y     ",
"      k P H.C.`   m.        }  .| E ] C.          ! p F > =     ",
"    U h i.m.m.3.  } f.} 4. .| ( E | '               F p w #     ",
"    U ` C.d.a.C.    3.o.| Q Q ( (                   T a a ;     ",
"    $./ m.w.w. .m.    1.}  .}       I                 A p <     ",
"  6.k h m. . . .|  .            _ e.                  A 9 q q   ",
"  >.j h m. . .[ ( ( [ ( { { ! F W                     G 9 y w   ",
"    b M h.[ [ ( ( ! R F Z C f                         ! i : <   ",
"    J J h._ [ E E G G A c m   !                       L p ,     ",
"    I g d.    E R A F F f n c                         G 8 1     ",
"      , E ~       S x x s                             R + @     ",
"      5 > C.                        m 5.            *.Z @ ;     ",
"      H . A _                       S !             ( - *       ",
"        y 1 ]                     < ~ f !         E i . q       ",
"          u o |                     c ; 9 f H G f d # q         ",
"          C & = R                   ( i e 9 8 9 d * 1           ",
"            f X @ Z 1.                &.p e f a 1 4             ",
"              p 1 # - A ) :.          2.( e q 2 u               ",
"                  r $ $ ; p C A A A A 0 @ 4 1 t                 ",
"                      t > @ 4 ; $ < ; > > t                     ",
"                            q w w q r                           ",
"                                                                "
};
