/* XPM */
static char *ca9552e851824217e392c7b6df493d613ph3RYKIMwIbsp39[] = {
/* columns rows colors chars-per-pixel */
"64 64 198 2 ",
"   c None",
".  c #0E417A",
"X  c #064E8E",
"o  c #0D4D8B",
"O  c #10498A",
"+  c #125684",
"@  c #12538C",
"#  c #034293",
"$  c #054F97",
"%  c #0C4C92",
"&  c #00439B",
"*  c #044B9C",
"=  c #094D9A",
"-  c #114E93",
";  c #0E5295",
":  c #095892",
">  c #05519A",
",  c #0C559E",
"<  c #085D9E",
"1  c #115491",
"2  c #165599",
"3  c #185498",
"4  c #0F6094",
"5  c #146A9F",
"6  c #0045A1",
"7  c #004BA4",
"8  c #004DAB",
"9  c #0554A5",
"0  c #0B55A3",
"q  c #0A58A5",
"w  c #0254AC",
"e  c #0955AA",
"r  c #055AAC",
"t  c #0B5CAB",
"y  c #135CA4",
"u  c #115CAB",
"i  c #004EB1",
"p  c #0155B2",
"a  c #0C57B2",
"s  c #0259B4",
"d  c #0B5BB3",
"f  c #0156BB",
"g  c #015BBC",
"h  c #085DBA",
"j  c #135DB5",
"k  c #0E63AC",
"l  c #1263A5",
"z  c #1466AE",
"x  c #136EAF",
"c  c #1172AD",
"v  c #0D61B4",
"b  c #0F6DB3",
"n  c #0361BD",
"m  c #0B61BB",
"M  c #1363B4",
"N  c #136CB5",
"B  c #1166B9",
"V  c #1F66BB",
"C  c #1169BB",
"Z  c #0D76B6",
"A  c #0D71BD",
"S  c #1775B4",
"D  c #1372BB",
"F  c #147EBC",
"G  c #227BB3",
"H  c #0055C1",
"J  c #025CC2",
"K  c #0A5FC3",
"L  c #015DCA",
"P  c #0162C4",
"I  c #0A62C5",
"U  c #0068C6",
"Y  c #0B6EC6",
"T  c #0165CB",
"R  c #016ACD",
"E  c #0A6BCB",
"W  c #176CC0",
"Q  c #136FCA",
"!  c #0D76CC",
"~  c #0D7CCC",
"^  c #1076C0",
"/  c #167EC1",
"(  c #1A7BC4",
")  c #1477CD",
"_  c #127ACA",
"`  c #1A7ECC",
"'  c #0165D3",
"]  c #016CD3",
"[  c #0B6ED2",
"{  c #0065DA",
"}  c #016DDB",
"|  c #096FDB",
" . c #0271D5",
".. c #0873D6",
"X. c #057CD3",
"o. c #0C7CD5",
"O. c #0173DC",
"+. c #0D72D9",
"@. c #057ADD",
"#. c #0A7EDA",
"$. c #1A77D0",
"%. c #137CD3",
"&. c #107FDB",
"*. c #026CE4",
"=. c #036FEA",
"-. c #0176E2",
";. c #0873E0",
":. c #0179E4",
">. c #0A7DE3",
",. c #0076EB",
"<. c #017CEB",
"1. c #0B7CE9",
"2. c #117FE3",
"3. c #187DE2",
"4. c #0075F5",
"5. c #017CF3",
"6. c #0074F8",
"7. c #007CFB",
"8. c #0E80CB",
"9. c #1481CC",
"0. c #1A83CE",
"q. c #1989CB",
"w. c #0C88D4",
"e. c #0581DE",
"r. c #0E82DE",
"t. c #0D8BDD",
"y. c #1482D5",
"u. c #1A86D7",
"i. c #148BD4",
"p. c #1C8AD3",
"a. c #1384DB",
"s. c #1A81DA",
"d. c #148ADD",
"f. c #1A8ADC",
"g. c #2386D7",
"h. c #2080DD",
"j. c #3092DD",
"k. c #0683E4",
"l. c #0C84E4",
"z. c #0D8BE5",
"x. c #0383ED",
"c. c #0B84EC",
"v. c #078BEB",
"b. c #0C8BEB",
"n. c #1182E1",
"m. c #1984E3",
"M. c #128BE4",
"N. c #138CED",
"B. c #0D92EC",
"V. c #1591E5",
"C. c #1291EA",
"Z. c #0283F4",
"A. c #0985F2",
"S. c #058AF4",
"D. c #0B8BF3",
"F. c #0185FC",
"G. c #0983FC",
"H. c #008FFF",
"J. c #008DFF",
"K. c #058DFE",
"L. c #018AFE",
"P. c #098BFB",
"I. c #0590F7",
"U. c #0492F6",
"Y. c #0C90F1",
"T. c #0D92F3",
"R. c #0598F7",
"E. c #0091FF",
"W. c #0291FF",
"Q. c #0093FF",
"!. c #0293FF",
"~. c #0792FF",
"^. c #0394FC",
"/. c #0196FF",
"(. c #0392FD",
"). c #0A92FA",
"_. c #0A93FD",
"`. c #0996FF",
"'. c #0A93FB",
"]. c #0198FF",
"[. c #029AFF",
"{. c #059AFF",
"}. c #0699FF",
"|. c #009DFF",
" X c #009FFF",
".X c #059DFF",
"XX c #049CFF",
"oX c #0999FF",
"OX c #0B9AFE",
"+X c #1493F2",
"@X c #1192F4",
"#X c #1990F4",
"$X c #2595F3",
"%X c #04A1FF",
"&X c #09A1FF",
"*X c #09A1FF",
"=X c #0AA8FF",
"-X c #2CA4F7",
/* pixels */
"                                                                                                                                ",
"                                                                                                                                ",
"                                                                                                                                ",
"                                                              F -X$X!                                                           ",
"                                                  N.B.`..XS.Y./.x.x.).v.!.oXT.Y.                                                ",
"                                            V.`.K.v.l.x                     ~ l.c.W.Y.                                          ",
"                                        C.^.S._         4 t.).>.k.^.S.T./           #.F._.                                      ",
"                                    V./.k.      q.D.D./.].!.L.J.!.J.L.L.!.].J.U.M.      ^ L.P.                                  ",
"                                  _.S.      M.W.J.L.L.F.L.!.L.L.L.L.L.S.L.F.L.L.F.L.L.u.    ! F.n.                              ",
"                              u. Xw.    C./.J.L.L.L.J.J.a.                f.b.A.F.F.F.F.K.0.    Z.G.                            ",
"                            D./.    i.!.J.F.L.L.L.L.L.J.l.                        n.F.7.5.L.A.    %.F.                          ",
"                          {.^.    v./.L.J.J.L.L.L.L.L.v./.i.                          k.7.5.5.F.y.  l F.                        ",
"                        {.X.    .XJ.L.J.S.N.z.b.L.J.!._ l.).                              #.:.:.7.x.    F.^                     ",
"                      ^.=X     XF.F.J.p.          D.L.D.  S.                          3.0...,.,.O.<.1.    7.                    ",
"                    +XK.    {.F.L._.                D.!.  `                       2.<.<.<.-.-.-.O.O.<.1.  S 6.                  ",
"                  u. X     XF.L.L.                    J.`                     1.5.5.,.:.-.-.O.O.O.O.] *.1.  v 7.                ",
"                  %X    *XL.L.J.M.                    c.N.                s.5.<.:.:.-.-.O.O.O.O.]  . .R -.C   :.m               ",
"                ].z.  B.!.L.L.J.                      f.%.              %.7.,.:.:.O.O.O.O.O. .] ] R ] R T -.    6.              ",
"              g.%X  l  XF.L.J.M.                      g.              l.5.:.:.-.O.:.-.O.O.] ]  .] R R R T T ]   k ]             ",
"              *XA   *XJ.L.L.!.                                      5.,.1.-.O.O.O.O. .] R T T R R R T U T P *.,   -.            ",
"            9.%X  Z  XF.L.J.J.    F.(                             5.4.-.:.O.-.O. .T ] -.<.<.:.] P P T T P P P ]   O R           ",
"            U.8.  ^.F.J.L.L.K.      P.                        ` 5.<.:.O.O.O.O.' O.x.S.c.s.s.z.S.x.T s T P n n R q   '           ",
"            %X  c ].L.J.J.L.L.      F.K.                    >.<.:.:.O.O.O.] ' Z.K.M.            f.U.] p P g n g T   e m         ",
"          b.v.  D.!.L.F.L.L.!.      A.F.A.              #.<.,.,.O.O.O.O.T O.K.V.                    oXR 8 n g s R .   ]         ",
"          *X:   %XL.J.L.F.F.E.!     r.J.Z.7.r.d.a.&.>.<.,.,.O.@.O.O.} T ,.).                          '.f p g s g u   s         ",
"          ^.  S /.F.L.F.L.F.L.A.      /.<.5.5.4.,.<.:.,.-.O.O.O.O.] ] <.B.                              K.7 s s s h   0 d       ",
"          Z.  @XL.L.F.F.F.Z.Z.J.      a.L.-.:.:.:.-.O.-.O.O.O.] T } A.V.                                z. .w p p J     J       ",
"        V.k.  S.L.Z.F.Z.F.Z.5.Z.P.      C.L.<.O.O.O.O. .] R ] -.Z.M.                                      D.7 w p J %   g       ",
"        T.o.  K.F.Z.Z.Z.Z.5.Z.<.F.N.      a.D.Z.5.<.-.,.:.:.x.l.        d.                                l.J w p f 9   d       ",
"        P.D   L.F.Z.Z.Z.5.x.<.x.:.F.o.          y.l.D.b.z.m.          ).o.                                #.@.7 p s e   s       ",
"        ^.    !.Z.Z.Z.x.x.<.<.<.<.-.F.b.                          z.<.G.                                    @.7 p p h   e >     ",
"      G `.    /.5.<.Z.<.<.<.<.:.:.-.} ,.F.n.                  a.k.' O.                                      1.p r p r   g $     ",
"      j.P.    L.<.x.<.<.:.:.:.:.-.O.O.O.} -.<.>.x.c.N.l.c.1.>.] f ;.                                        l.s p p r   s e     ",
"        K.    L.x.<.<.:.:.-.,.:.O.O.O.O. .] T ' ] } ] ] T P s H ..                                          l.f w p r   h >     ",
"        K.    !.<.:.:.:.:.O.O.O.O.O. .] ] ] R ] R U P P U g J 3.                                            c.f 8 p s   9 9     ",
"        A.N   5.F.<.O.-.:.-.O.O.O.]  .] ] R R T T P P P L I $.    y.                                        l.P w f 9   p       ",
"        >.X.  -.Z.K.,.O.O.O.O.] ] ] R R R R R U U P J h W       t.#X                                        D.s w f e   d       ",
"        ` ;.  @.5.^.  ..*. . .] ] R ] R T T U P P B          .:.m.                                          l.f w P O   h       ",
"          -.  ) -.L.    $.} ] R R R R U T T P P P B V E P J I                                               >.s w f   + J       ",
"          Z.    ,.Z...      E ' ' T P U P P P n P J f s p u                 o.                              1.w p f   r w       ",
"          1.q   ,.} D.          C T T J T P J J g s v j                   o.)                               >.8 g 0   J         ",
"          ^ -.  Y ] L.                B M t k N                           R...                            _ O.7 T     T         ",
"            5.    ,.O.b.                                                  !.e.                            b.f w K   e a         ",
"            +.m   @.J J.                                                  ..>.                            Z.7 J X   T           ",
"              5.  1 *.T Y.                                            M   ..} y.                        oXJ 8 I   > s           ",
"              | q   ..f <.B.                                          M   L.7 x.                      d.-.* P 1   '             ",
"                4.    } p K.                                          ]   &.H 8 Y.                  M.c.* p I   q p             ",
"                h |   u T g '.                                        x.%   O.& p x.C.            D.O.8 w T     {               ",
"                  *.y   I w J OX                                      l.L 2 C p w 7 T @.1.c.1.:.O.s 7 w T -   L t               ",
"                    =.    ' 8 T OX                                      <.# j s r p 7 7 p p p w 7 w w J q   K J                 ",
"                    K {     ' 7 J '.                                    T.f 7 p p w p p w w w r p w J h   % '                   ",
"                      e '     L 7 s ).d.                                y.!.6 p s p r p p p p p w J d   1 '                     ",
"                        g L     P i 8 @.B.                                b.x.* w p r p p p r p J t   ; '                       ",
"                          9 L     t J 6 n l.T.                              V.e.8 w p p p p f J @   u L                         ",
"                            s ' @   @ I p 7 P k.z.D.                          .X.Xn w w p J d     h J                           ",
"                                L h     0 h i i n ..#.D.M.y.            f.z.c...E s p J d     2 T e                             ",
"                                  s T -     ; r p 8 i f T } O. .@.@...,.R P p 8 p s e       h s                                 ",
"                                      J K =       e r a i 8 w i i 8 8 w 8 p e r O       a J s                                   ",
"                                          h J d             q 2 , , , q           % I J r                                       ",
"                                              e s f 9 e 1                 $ q s I f                                             ",
"                                                    d e f s s f s s f s s h a                                                   ",
"                                                              r $ 9 q                                                           ",
"                                                                                                                                ",
"                                                                                                                                "
};
