<?xml version="1.0" encoding="UTF-8" standalone="no"?>
<svg
   xmlns:dc="http://purl.org/dc/elements/1.1/"
   xmlns:cc="http://creativecommons.org/ns#"
   xmlns:rdf="http://www.w3.org/1999/02/22-rdf-syntax-ns#"
   xmlns:svg="http://www.w3.org/2000/svg"
   xmlns="http://www.w3.org/2000/svg"
   xmlns:sodipodi="http://sodipodi.sourceforge.net/DTD/sodipodi-0.dtd"
   xmlns:inkscape="http://www.inkscape.org/namespaces/inkscape"
   width="24px"
   height="24px"
   viewBox="0 0 24 24"
   version="1.1"
   id="svg9"
   sodipodi:docname="bg-multi-number-dark.svg"
   inkscape:version="0.92.3 (2405546, 2018-03-11)">
  <metadata
     id="metadata15">
    <rdf:RDF>
      <cc:Work
         rdf:about="">
        <dc:format>image/svg+xml</dc:format>
        <dc:type
           rdf:resource="http://purl.org/dc/dcmitype/StillImage" />
      </cc:Work>
    </rdf:RDF>
  </metadata>
  <defs
     id="defs13" />
  <sodipodi:namedview
     pagecolor="#ffffff"
     bordercolor="#666666"
     borderopacity="1"
     objecttolerance="10"
     gridtolerance="10"
     guidetolerance="10"
     inkscape:pageopacity="0"
     inkscape:pageshadow="2"
     inkscape:window-width="1853"
     inkscape:window-height="1145"
     id="namedview11"
     showgrid="false"
     inkscape:zoom="9.8333333"
     inkscape:cx="-4.4745763"
     inkscape:cy="12"
     inkscape:window-x="67"
     inkscape:window-y="27"
     inkscape:window-maximized="1"
     inkscape:current-layer="svg9" />
  <!-- Generator: Sketch 52.6 (67491) - http://www.bohemiancoding.com/sketch -->
  <title
     id="title2">Top BarTheme Copy</title>
  <desc
     id="desc4">Created with Sketch.</desc>
  <g
     id="Top-BarTheme-Copy"
     stroke="none"
     stroke-width="1"
     fill="none"
     fill-rule="evenodd">
    <circle
       id="Oval"
       fill="#0F0B16"
       fill-rule="nonzero"
       cx="12"
       cy="12"
       r="12" />
    <path
       d="M12,3 C7.02943725,3 3,7.02943725 3,12 C3,16.9705627 7.02943725,21 12,21 C16.9705627,21 21,16.9705627 21,12 C21,9.61305159 20.0517884,7.32386638 18.363961,5.63603897 C16.6761336,3.94821156 14.3869484,3 12,3 Z"
       id="Path_18926"
       stroke="#B088FF"
       stroke-width="1.5"
       fill="#0F0B16"
       fill-rule="nonzero" />
  </g>
  <path
     style="fill:#0080e8;fill-opacity:0;stroke-width:0.10169491"
     d="M 10.301695,21.551874 C 6.6351322,20.874742 3.7803992,18.287616 2.6609537,14.627386 2.4047134,13.789562 2.383024,13.583728 2.383024,11.989831 c 0,-1.594003 0.021678,-1.799696 0.2780005,-2.6378001 1.7917791,-5.8586293 8.1357745,-8.69425741 13.5530055,-6.057899 4.900836,2.3850491 6.872997,8.1942801 4.436617,13.0685801 -1.885171,3.771537 -6.229596,5.949914 -10.348952,5.189162 z m 4.223352,-1.667848 c 2.206975,-0.713064 3.871845,-2.158122 4.877098,-4.233179 0.685386,-1.414783 0.854667,-2.156151 0.847546,-3.711864 -0.0049,-1.069901 -0.0484,-1.413011 -0.274766,-2.1668608 C 19.488581,8.1524514 18.82906,7.0883602 17.58781,5.9206823 16.64714,5.0357679 15.435147,4.3533106 14.159165,3.9900571 13.103443,3.6895085 11.051701,3.660979 10.059762,3.9330547 7.0325969,4.7633664 4.9603187,6.7476601 4.0315946,9.7052789 3.8237129,10.3673 3.7935819,10.666042 3.7960461,12.040678 c 0.00271,1.512459 0.016302,1.615382 0.3357049,2.542373 0.5907275,1.714445 1.6325523,3.137877 3.012591,4.116064 1.6643384,1.179702 3.062661,1.597471 5.140404,1.535775 1.077091,-0.03198 1.419158,-0.08556 2.240301,-0.350864 z"
     id="path17"
     inkscape:connector-curvature="0" />
  <path
     style="fill:#005ce0;fill-opacity:0;stroke-width:0.10169491"
     d="M 10.301695,21.551874 C 6.6351322,20.874742 3.7803992,18.287616 2.6609537,14.627386 2.4047134,13.789562 2.383024,13.583728 2.383024,11.989831 c 0,-1.594003 0.021678,-1.799696 0.2780005,-2.6378001 1.7917791,-5.8586293 8.1357745,-8.69425741 13.5530055,-6.057899 4.900836,2.3850491 6.872997,8.1942801 4.436617,13.0685801 -1.885171,3.771537 -6.229596,5.949914 -10.348952,5.189162 z m 4.223352,-1.667848 c 2.206975,-0.713064 3.871845,-2.158122 4.877098,-4.233179 0.685386,-1.414783 0.854667,-2.156151 0.847546,-3.711864 -0.0049,-1.069901 -0.0484,-1.413011 -0.274766,-2.1668608 C 19.488581,8.1524514 18.82906,7.0883602 17.58781,5.9206823 16.64714,5.0357679 15.435147,4.3533106 14.159165,3.9900571 13.103443,3.6895085 11.051701,3.660979 10.059762,3.9330547 7.0325969,4.7633664 4.9603187,6.7476601 4.0315946,9.7052789 3.8237129,10.3673 3.7935819,10.666042 3.7960461,12.040678 c 0.00271,1.512459 0.016302,1.615382 0.3357049,2.542373 0.5907275,1.714445 1.6325523,3.137877 3.012591,4.116064 1.6643384,1.179702 3.062661,1.597471 5.140404,1.535775 1.077091,-0.03198 1.419158,-0.08556 2.240301,-0.350864 z"
     id="path19"
     inkscape:connector-curvature="0" />
  <path
     style="fill:#005ce0;fill-opacity:0;stroke-width:0.10169491"
     d="M 10.301695,21.551874 C 6.6351322,20.874742 3.7803992,18.287616 2.6609537,14.627386 2.4047134,13.789562 2.383024,13.583728 2.383024,11.989831 c 0,-1.594003 0.021678,-1.799696 0.2780005,-2.6378001 1.7917791,-5.8586293 8.1357745,-8.69425741 13.5530055,-6.057899 4.900836,2.3850491 6.872997,8.1942801 4.436617,13.0685801 -1.885171,3.771537 -6.229596,5.949914 -10.348952,5.189162 z m 4.223352,-1.667848 c 2.206975,-0.713064 3.871845,-2.158122 4.877098,-4.233179 0.685386,-1.414783 0.854667,-2.156151 0.847546,-3.711864 -0.0049,-1.069901 -0.0484,-1.413011 -0.274766,-2.1668608 C 19.488581,8.1524514 18.82906,7.0883602 17.58781,5.9206823 16.64714,5.0357679 15.435147,4.3533106 14.159165,3.9900571 13.103443,3.6895085 11.051701,3.660979 10.059762,3.9330547 7.0325969,4.7633664 4.9603187,6.7476601 4.0315946,9.7052789 3.8237129,10.3673 3.7935819,10.666042 3.7960461,12.040678 c 0.00271,1.512459 0.016302,1.615382 0.3357049,2.542373 0.5907275,1.714445 1.6325523,3.137877 3.012591,4.116064 1.6643384,1.179702 3.062661,1.597471 5.140404,1.535775 1.077091,-0.03198 1.419158,-0.08556 2.240301,-0.350864 z"
     id="path21"
     inkscape:connector-curvature="0" />
  <path
     style="fill:#005ce0;fill-opacity:0;stroke-width:0.10169491"
     d="M 10.301695,21.551874 C 6.6351322,20.874742 3.7803992,18.287616 2.6609537,14.627386 2.4047134,13.789562 2.383024,13.583728 2.383024,11.989831 c 0,-1.594003 0.021678,-1.799696 0.2780005,-2.6378001 1.7917791,-5.8586293 8.1357745,-8.69425741 13.5530055,-6.057899 4.900836,2.3850491 6.872997,8.1942801 4.436617,13.0685801 -1.885171,3.771537 -6.229596,5.949914 -10.348952,5.189162 z m 4.223352,-1.667848 c 2.206975,-0.713064 3.871845,-2.158122 4.877098,-4.233179 0.685386,-1.414783 0.854667,-2.156151 0.847546,-3.711864 -0.0049,-1.069901 -0.0484,-1.413011 -0.274766,-2.1668608 C 19.488581,8.1524514 18.82906,7.0883602 17.58781,5.9206823 16.64714,5.0357679 15.435147,4.3533106 14.159165,3.9900571 13.103443,3.6895085 11.051701,3.660979 10.059762,3.9330547 7.0325969,4.7633664 4.9603187,6.7476601 4.0315946,9.7052789 3.8237129,10.3673 3.7935819,10.666042 3.7960461,12.040678 c 0.00271,1.512459 0.016302,1.615382 0.3357049,2.542373 0.5907275,1.714445 1.6325523,3.137877 3.012591,4.116064 1.6643384,1.179702 3.062661,1.597471 5.140404,1.535775 1.077091,-0.03198 1.419158,-0.08556 2.240301,-0.350864 z"
     id="path23"
     inkscape:connector-curvature="0" />
  <path
     style="fill:#34d0fc;fill-opacity:0;stroke-width:0.10169491"
     d="M 10.301695,21.551874 C 6.6351322,20.874742 3.7803992,18.287616 2.6609537,14.627386 2.4047134,13.789562 2.383024,13.583728 2.383024,11.989831 c 0,-1.594003 0.021678,-1.799696 0.2780005,-2.6378001 1.7917791,-5.8586293 8.1357745,-8.69425741 13.5530055,-6.057899 4.900836,2.3850491 6.872997,8.1942801 4.436617,13.0685801 -1.885171,3.771537 -6.229596,5.949914 -10.348952,5.189162 z m 4.223352,-1.667848 c 2.206975,-0.713064 3.871845,-2.158122 4.877098,-4.233179 0.685386,-1.414783 0.854667,-2.156151 0.847546,-3.711864 -0.0049,-1.069901 -0.0484,-1.413011 -0.274766,-2.1668608 C 19.488581,8.1524514 18.82906,7.0883602 17.58781,5.9206823 16.64714,5.0357679 15.435147,4.3533106 14.159165,3.9900571 13.103443,3.6895085 11.051701,3.660979 10.059762,3.9330547 7.0325969,4.7633664 4.9603187,6.7476601 4.0315946,9.7052789 3.8237129,10.3673 3.7935819,10.666042 3.7960461,12.040678 c 0.00271,1.512459 0.016302,1.615382 0.3357049,2.542373 0.5907275,1.714445 1.6325523,3.137877 3.012591,4.116064 1.6643384,1.179702 3.062661,1.597471 5.140404,1.535775 1.077091,-0.03198 1.419158,-0.08556 2.240301,-0.350864 z"
     id="path25"
     inkscape:connector-curvature="0" />
  <path
     style="fill:#34d0fc;fill-opacity:0;stroke-width:0.10169491"
     d="M 10.301695,21.551874 C 6.6351322,20.874742 3.7803992,18.287616 2.6609537,14.627386 2.4047134,13.789562 2.383024,13.583728 2.383024,11.989831 c 0,-1.594003 0.021678,-1.799696 0.2780005,-2.6378001 1.7917791,-5.8586293 8.1357745,-8.69425741 13.5530055,-6.057899 4.900836,2.3850491 6.872997,8.1942801 4.436617,13.0685801 -1.885171,3.771537 -6.229596,5.949914 -10.348952,5.189162 z m 4.223352,-1.667848 c 2.206975,-0.713064 3.871845,-2.158122 4.877098,-4.233179 0.685386,-1.414783 0.854667,-2.156151 0.847546,-3.711864 -0.0049,-1.069901 -0.0484,-1.413011 -0.274766,-2.1668608 C 19.488581,8.1524514 18.82906,7.0883602 17.58781,5.9206823 16.64714,5.0357679 15.435147,4.3533106 14.159165,3.9900571 13.103443,3.6895085 11.051701,3.660979 10.059762,3.9330547 7.0325969,4.7633664 4.9603187,6.7476601 4.0315946,9.7052789 3.8237129,10.3673 3.7935819,10.666042 3.7960461,12.040678 c 0.00271,1.512459 0.016302,1.615382 0.3357049,2.542373 0.5907275,1.714445 1.6325523,3.137877 3.012591,4.116064 1.6643384,1.179702 3.062661,1.597471 5.140404,1.535775 1.077091,-0.03198 1.419158,-0.08556 2.240301,-0.350864 z"
     id="path27"
     inkscape:connector-curvature="0" />
  <path
     style="fill:#34d0fc;fill-opacity:0;stroke-width:0.10169491"
     d="M 10.461883,20.065702 C 7.3664964,19.458399 4.7759563,16.989698 4.0480901,13.953564 3.7722982,12.80316 3.7716005,11.140906 4.0464511,10.048471 4.3111753,8.9962846 5.0228521,7.5752715 5.6890627,6.7686499 c 1.0158967,-1.2300078 2.684944,-2.298199 4.2567,-2.7242907 1.0284103,-0.2787946 3.1670413,-0.2582534 4.1999163,0.04034 2.903279,0.8393062 5.065016,3.055445 5.826303,5.9729278 0.268016,1.027116 0.24667,2.9771 -0.04436,4.052561 -0.792477,2.928467 -3.301556,5.302889 -6.240282,5.905381 -0.835705,0.171333 -2.477626,0.196855 -3.225455,0.05013 z"
     id="path29"
     inkscape:connector-curvature="0" />
  <path
     style="fill:#0072d5;fill-opacity:0.3764706;stroke-width:0.10169491"
     d="M 10.301695,21.551874 C 6.6351322,20.874742 3.7803992,18.287616 2.6609537,14.627386 2.4047134,13.789562 2.383024,13.583728 2.383024,11.989831 c 0,-1.594003 0.021678,-1.799696 0.2780005,-2.6378001 1.7917791,-5.8586293 8.1357745,-8.69425741 13.5530055,-6.057899 4.900836,2.3850491 6.872997,8.1942801 4.436617,13.0685801 -1.885171,3.771537 -6.229596,5.949914 -10.348952,5.189162 z m 4.223352,-1.667848 c 2.206975,-0.713064 3.871845,-2.158122 4.877098,-4.233179 0.685386,-1.414783 0.854667,-2.156151 0.847546,-3.711864 -0.0049,-1.069901 -0.0484,-1.413011 -0.274766,-2.1668608 C 19.488581,8.1524514 18.82906,7.0883602 17.58781,5.9206823 16.64714,5.0357679 15.435147,4.3533106 14.159165,3.9900571 13.103443,3.6895085 11.051701,3.660979 10.059762,3.9330547 7.0325969,4.7633664 4.9603187,6.7476601 4.0315946,9.7052789 3.8237129,10.3673 3.7935819,10.666042 3.7960461,12.040678 c 0.00271,1.512459 0.016302,1.615382 0.3357049,2.542373 0.5907275,1.714445 1.6325523,3.137877 3.012591,4.116064 1.6643384,1.179702 3.062661,1.597471 5.140404,1.535775 1.077091,-0.03198 1.419158,-0.08556 2.240301,-0.350864 z"
     id="path31"
     inkscape:connector-curvature="0" />
</svg>
