<?xml version="1.0" encoding="UTF-8" standalone="no"?>
<svg
   xmlns:dc="http://purl.org/dc/elements/1.1/"
   xmlns:cc="http://creativecommons.org/ns#"
   xmlns:rdf="http://www.w3.org/1999/02/22-rdf-syntax-ns#"
   xmlns:svg="http://www.w3.org/2000/svg"
   xmlns="http://www.w3.org/2000/svg"
   xmlns:sodipodi="http://sodipodi.sourceforge.net/DTD/sodipodi-0.dtd"
   xmlns:inkscape="http://www.inkscape.org/namespaces/inkscape"
   width="24"
   height="24"
   viewBox="0 0 24 24"
   version="1.1"
   id="svg8"
   sodipodi:docname="btn-radio-active.svg"
   inkscape:version="0.92.3 (2405546, 2018-03-11)">
  <metadata
     id="metadata12">
    <rdf:RDF>
      <cc:Work
         rdf:about="">
        <dc:format>image/svg+xml</dc:format>
        <dc:type
           rdf:resource="http://purl.org/dc/dcmitype/StillImage" />
      </cc:Work>
    </rdf:RDF>
  </metadata>
  <sodipodi:namedview
     pagecolor="#ffffff"
     bordercolor="#666666"
     borderopacity="1"
     objecttolerance="10"
     gridtolerance="10"
     guidetolerance="10"
     inkscape:pageopacity="0"
     inkscape:pageshadow="2"
     inkscape:window-width="1853"
     inkscape:window-height="1145"
     id="namedview10"
     showgrid="false"
     inkscape:zoom="9.8333333"
     inkscape:cx="-4.4745763"
     inkscape:cy="12"
     inkscape:window-x="67"
     inkscape:window-y="27"
     inkscape:window-maximized="1"
     inkscape:current-layer="svg8" />
  <defs
     id="defs4">
    <style
       type="text/css"
       id="style2">
            .cls-1{fill:#5c4b7d;fill-rule:evenodd}
        </style>
  </defs>
  <g
     id="radiobttom_active"
     transform="translate(-508 -240)">
    <path
       id="radio_on"
       d="M14 8a6 6 0 1 0 6 6 5.942 5.942 0 0 0-6-6zm0-6a12 12 0 1 0 12 12A12.035 12.035 0 0 0 14 2zm0 21.6a9.6 9.6 0 1 1 9.6-9.6 9.628 9.628 0 0 1-9.6 9.6z"
       class="cls-1"
       transform="translate(506 238)" />
  </g>
  <path
     style="fill:#0094ec;fill-opacity:1;stroke-width:0.10169491"
     d="M 10.810169,17.83505 C 9.0134115,17.474404 7.3573979,16.146264 6.5951465,14.454559 6.2258666,13.634996 6.0813559,12.932057 6.0813559,11.955344 c 0,-1.613747 0.5484673,-2.919781 1.7200593,-4.095879 1.5686298,-1.5746629 3.5693128,-2.1482692 5.6430578,-1.6178944 2.05984,0.5268183 3.625967,2.005909 4.255969,4.0194464 0.312132,0.997598 0.303876,2.573481 -0.01838,3.508475 -0.554929,1.610068 -1.637004,2.856457 -3.076611,3.543795 -0.46537,0.222191 -1.088635,0.453868 -1.385032,0.514839 -0.609904,0.125462 -1.802613,0.128889 -2.410249,0.0069 z"
     id="path14"
     inkscape:connector-curvature="0" />
  <path
     style="fill:#0072d5;fill-opacity:0.3764706;stroke-width:0.10169491"
     d="M 9.9650109,23.776533 C 6.3263105,23.166252 3.0012712,20.697035 1.3130059,17.351442 0.87721153,16.487838 0.43548329,15.131583 0.22918028,14.023729 -0.02169598,12.676515 0.06550061,10.408308 0.419938,9.0616309 1.6555126,4.3670934 5.4906123,0.90512158 10.250424,0.18758042 14.523246,-0.45654692 18.906131,1.3426024 21.52241,4.8146657 c 1.083576,1.4380147 1.944403,3.4118323 2.264398,5.1921143 0.19426,1.08076 0.166554,3.209262 -0.0556,4.271186 -1.034514,4.945149 -4.832885,8.644932 -9.756841,9.503598 -1.090567,0.190179 -2.858674,0.18796 -4.0093581,-0.005 z M 14.653049,21.256541 C 20.923092,19.37581 23.614984,12.046807 20.012086,6.6659125 18.699048,4.7049028 16.730265,3.2978888 14.413543,2.6648489 13.67772,2.4637867 13.324868,2.4314332 11.928814,2.4370204 c -1.475076,0.0059 -1.712643,0.03266 -2.5423733,0.286346 -3.5139716,1.0743779 -5.9240116,3.620626 -6.7795662,7.1627263 -0.2487338,1.0297883 -0.2941528,2.8606103 -0.095078,3.8325513 0.6969689,3.402802 2.8983736,6.064998 6.0063256,7.263551 1.3171142,0.507934 2.0191619,0.617096 3.7157759,0.577776 1.287707,-0.02984 1.664699,-0.07713 2.419151,-0.30343 z"
     id="path16"
     inkscape:connector-curvature="0" />
  <path
     style="fill:#0072d5;fill-opacity:0.37647059;stroke-width:0.10169491"
     d="M 10.259242,17.643605 C 8.9873599,17.236736 7.6071802,16.150771 6.9665742,15.052838 5.9441765,13.300553 5.8531198,11.181653 6.7240274,9.4087446 7.1292827,8.5837656 8.2167691,7.4312884 9.0652352,6.9276207 10.021301,6.3600795 10.858341,6.1292965 11.949153,6.1324869 c 1.672522,0.00489 3.093132,0.5857663 4.222456,1.7265237 2.286883,2.3100374 2.294367,5.9478444 0.01694,8.2348164 -0.701757,0.704698 -1.49683,1.191289 -2.523931,1.544664 -0.777517,0.267504 -2.576691,0.270206 -3.405377,0.0051 z"
     id="path823"
     inkscape:connector-curvature="0" />
  <path
     style="fill:#0072d5;fill-opacity:0.37647059;stroke-width:0.10169491"
     d="M 11.237288,17.825225 C 8.4148314,17.553002 6.1052265,14.926873 6.1052265,11.989831 c 0,-1.607016 0.5396957,-2.8550541 1.7642521,-4.0798069 1.2906399,-1.290847 2.5190344,-1.812801 4.2322164,-1.7982995 1.936261,0.01639 3.919022,1.1279325 4.930154,2.7638628 0.719644,1.1643256 1.030598,2.8570686 0.777573,4.2328876 -0.302319,1.643851 -1.648162,3.400507 -3.171601,4.139719 -1.165911,0.56573 -2.01821,0.710355 -3.400533,0.577031 z"
     id="path825"
     inkscape:connector-curvature="0" />
  <path
     style="fill:#0072d5;fill-opacity:0.37647059;stroke-width:0.10169491"
     d="M 11.186441,17.830322 C 8.3672117,17.50784 6.1052265,14.90785 6.1052265,11.989831 c 0,-1.639957 0.5381503,-2.862006 1.8138161,-4.1188731 C 9.2445072,6.5650261 10.293631,6.1143868 12,6.1180296 c 2.552407,0.00545 4.766861,1.5666997 5.599388,3.9477234 0.259842,0.743147 0.361665,2.218232 0.210034,3.042722 -0.18085,0.983366 -0.843989,2.204782 -1.625113,2.993247 -1.368523,1.381386 -3.024918,1.954279 -4.997868,1.7286 z"
     id="path827"
     inkscape:connector-curvature="0" />
  <path
     style="fill:#0072d5;fill-opacity:0.37647059;stroke-width:0.10169491"
     d="M 11.186441,17.834481 C 8.3724051,17.494888 6.1038245,14.908296 6.1049639,12.040678 6.1055785,10.493846 6.5919846,9.2702011 7.6683952,8.1075782 8.9750934,6.6962234 10.222789,6.1163064 11.949153,6.1179225 c 3.219407,0.00301 5.724427,2.3168809 5.916612,5.4651285 0.07304,1.196469 -0.07472,1.944921 -0.591082,2.994094 -0.316856,0.643804 -0.605402,1.041381 -1.153792,1.589772 -1.331643,1.331643 -3.012119,1.899548 -4.93445,1.667564 z"
     id="path829"
     inkscape:connector-curvature="0" />
  <path
     style="fill:#0072d5;fill-opacity:0.37647059;stroke-width:0.10169491"
     d="M 11.135593,17.839218 C 8.3417637,17.486012 6.1047012,14.884992 6.1047012,11.989831 c 0,-1.508672 0.4881092,-2.7205218 1.563694,-3.8822528 1.2698457,-1.3715507 2.5510428,-1.9837166 4.1780508,-1.9963049 1.648197,-0.012752 3.03339,0.5079502 4.163451,1.5650666 1.206851,1.1289502 1.767794,2.3225522 1.859885,3.9575581 0.06851,1.216346 -0.07118,1.903193 -0.605894,2.979069 -0.735054,1.478984 -2.255422,2.725015 -3.789312,3.105565 -0.617115,0.153103 -1.657827,0.206801 -2.338983,0.120686 z"
     id="path831"
     inkscape:connector-curvature="0" />
  <path
     style="fill:#0072d5;fill-opacity:0.37647059;stroke-width:0.10169491"
     d="M 10.526691,23.833127 C 8.0611909,23.55332 5.4791358,22.283461 3.6080116,20.430508 2.2315669,19.067432 1.3624853,17.68382 0.75718772,15.891889 0.09978465,13.945704 -0.05734204,12.137616 0.25237386,10.082895 0.61581422,7.6717541 1.8208451,5.3367367 3.6321053,3.5339077 5.8514383,1.3249055 8.7686395,0.12336305 11.949153,0.10826631 c 1.402751,-0.006658 2.364835,0.13825244 3.661016,0.55142883 3.950758,1.25936056 6.832115,4.35568456 8.003181,8.60026726 0.187731,0.6804389 0.220826,1.0741516 0.225197,2.6790206 0.0045,1.653075 -0.0237,1.992411 -0.232459,2.79661 -1.038909,4.002243 -3.723462,7.024418 -7.50876,8.453096 -1.543816,0.582679 -3.807419,0.844544 -5.570637,0.644438 z m 3.384376,-2.394642 c 2.933465,-0.604452 5.328893,-2.460606 6.681693,-5.177468 0.761972,-1.530288 1.004006,-2.559935 1.004006,-4.271186 0,-1.656437 -0.2444,-2.7307824 -0.951699,-4.1835221 C 19.599853,5.6595125 17.904132,4.0394855 15.752324,3.1319673 14.303611,2.5209774 13.855978,2.4392708 11.949153,2.4377722 L 10.220339,2.4364136 9.0714589,2.8287661 C 5.7750653,3.9545126 3.4773607,6.4260415 2.6346362,9.7525424 2.3126494,11.023526 2.3088418,13.043856 2.6261793,14.240117 c 0.7502281,2.828127 2.437704,4.982171 4.9253556,6.287164 0.8979738,0.471067 1.9153745,0.836354 2.6949611,0.967598 0.862304,0.145169 2.833587,0.114834 3.664571,-0.05639 z"
     id="path833"
     inkscape:connector-curvature="0" />
  <path
     style="fill:#0072d5;fill-opacity:0.37647059;stroke-width:0.10169491"
     d="M 9.6716557,23.680032 C 7.3737032,23.181537 5.4343929,22.137215 3.7115092,20.470482 2.6057109,19.400722 1.8919077,18.414118 1.2717755,17.098328 -0.85453184,12.586754 -0.00855035,7.3911842 3.4401207,3.7815007 4.4965715,2.6757261 5.3295847,2.0680091 6.7627119,1.3575353 8.4460411,0.52302367 9.5788394,0.23995354 11.517645,0.16934541 c 1.723714,-0.0627748 2.600678,0.0462268 4.041677,0.50235771 3.566321,1.12887598 6.285318,3.76358168 7.664003,7.42641178 0.467123,1.2410281 0.579801,2.0065781 0.578503,3.9304241 -0.0011,1.565597 -0.03324,1.927045 -0.246451,2.767536 -1.163646,4.587232 -4.87581,8.102291 -9.387514,8.889066 -1.097763,0.191435 -3.60331,0.188587 -4.4962073,-0.0051 z m 4.7033433,-2.325884 c 3.468449,-0.954657 6.146149,-3.686554 6.997905,-7.139539 0.177769,-0.720668 0.221511,-1.1899 0.216872,-2.326473 C 21.582586,10.127503 21.387108,9.309199 20.593737,7.7186441 19.403446,5.3323398 17.518996,3.6976531 14.940776,2.8149183 14.051406,2.5104146 13.771193,2.4634631 12.534881,2.4117946 10.796269,2.3391339 9.9489526,2.4641623 8.6020273,2.9921195 5.5914751,4.1721722 3.4515019,6.5781572 2.6342798,9.7016949 2.3644045,10.733196 2.3093209,12.924149 2.5281745,13.922034 c 0.1861447,0.848744 0.7766418,2.301814 1.2704146,3.126183 1.267753,2.116551 3.6786708,3.843127 6.1336204,4.392587 0.9113255,0.20397 3.5757025,0.152002 4.4427895,-0.08666 z"
     id="path835"
     inkscape:connector-curvature="0" />
  <path
     style="fill:#0072d5;fill-opacity:0.37647059;stroke-width:0.10169491"
     d="M 11.135593,17.840427 C 8.3372766,17.48111 6.1047012,14.884772 6.1047012,11.989831 c 0,-1.508672 0.4881092,-2.7205218 1.563694,-3.8822528 1.2699352,-1.3716473 2.5546958,-1.9859128 4.1790628,-1.9980794 1.644361,-0.012316 3.033168,0.5104639 4.162439,1.5668411 1.206851,1.1289502 1.767794,2.3225522 1.859885,3.9575581 0.06858,1.217623 -0.07141,1.904434 -0.607237,2.979069 -0.466451,0.935505 -1.413997,1.974351 -2.239335,2.455105 -1.118908,0.651755 -2.574581,0.940955 -3.887617,0.772355 z"
     id="path837"
     inkscape:connector-curvature="0" />
  <path
     style="fill:#0072d5;fill-opacity:0.37647059;stroke-width:0.10169491"
     d="M 10.932203,17.832393 C 9.9094506,17.677092 8.7187441,17.019524 7.8297691,16.119071 6.6658354,14.94011 6.1047012,13.59694 6.1047012,11.989831 c 0,-1.5197 0.4871904,-2.7190128 1.5881661,-3.9095764 1.2718767,-1.375371 2.4805977,-1.9476486 4.1545907,-1.9670199 1.63728,-0.018946 3.030522,0.5042522 4.162439,1.5631052 1.206851,1.1289502 1.767794,2.3225522 1.859885,3.9575581 0.06838,1.214118 -0.07168,1.905884 -0.599363,2.960159 -1.180642,2.35885 -3.68927,3.640564 -6.338216,3.238336 z"
     id="path839"
     inkscape:connector-curvature="0" />
  <path
     style="fill:#0072d5;fill-opacity:0.37647059;stroke-width:0.10169491"
     d="M 10.932203,17.833195 C 9.9085129,17.676406 8.7177089,17.018475 7.8297691,16.119071 6.6658354,14.94011 6.1047012,13.59694 6.1047012,11.989831 c 0,-1.5197 0.4871904,-2.7190128 1.5881661,-3.9095764 1.2916384,-1.3967407 2.4872497,-1.9548053 4.2054377,-1.9629347 1.779446,-0.00842 3.017316,0.4976486 4.281686,1.7504448 1.202145,1.191142 1.718314,2.4591213 1.718314,4.2210723 0,2.44313 -1.767791,4.806492 -4.148188,5.545718 -0.772948,0.240037 -1.988278,0.325708 -2.817914,0.19864 z"
     id="path841"
     inkscape:connector-curvature="0" />
  <path
     style="fill:#0072d5;fill-opacity:0.37647059;stroke-width:0.10169491"
     d="M 10.881356,17.832011 C 10.573729,17.77927 9.9330508,17.546277 9.4576271,17.314249 7.8675047,16.538198 6.6555711,15.038844 6.2592363,13.357333 5.7986865,11.403381 6.3001681,9.5529095 7.6914727,8.0723698 9.2415381,6.4228868 10.953805,5.8151647 13.014119,6.1832431 c 1.268211,0.226568 2.213298,0.7277032 3.165872,1.6787133 1.203324,1.2013498 1.718314,2.4681736 1.718314,4.2268806 0,2.400931 -1.63145,4.639267 -4.010939,5.502975 -0.758572,0.275347 -2.151698,0.386666 -3.00601,0.240199 z"
     id="path843"
     inkscape:connector-curvature="0" />
  <path
     style="fill:#0072d5;fill-opacity:0.37647059;stroke-width:0.10169491"
     d="M 10.881356,17.832011 C 10.062842,17.691681 8.7470631,17.006656 8.0417136,16.353626 6.8126365,15.215718 6.2154663,13.948485 6.1290889,12.294915 6.0393077,10.576185 6.4981168,9.3424114 7.7044689,8.0585932 9.2407908,6.4236161 10.960237,5.8163137 13.014119,6.1832431 c 1.273504,0.2275136 2.215209,0.727974 3.158795,1.6787133 1.219855,1.2291049 1.720759,2.4297016 1.723888,4.1319316 0.0046,2.495486 -1.587955,4.718974 -4.009436,5.597924 -0.758572,0.275347 -2.151698,0.386666 -3.00601,0.240199 z"
     id="path845"
     inkscape:connector-curvature="0" />
  <path
     style="fill:#0072d5;fill-opacity:0.37647059;stroke-width:0.10169491"
     d="M 10.706008,17.791987 C 9.6793753,17.558031 8.6925605,16.982157 7.8305085,16.113935 6.6405535,14.915461 6.1016949,13.630008 6.1016949,11.989831 c 0,-1.541146 0.4928828,-2.7500748 1.602774,-3.9312378 1.5363219,-1.6349771 3.2557681,-2.2422795 5.3096501,-1.8753501 1.273504,0.2275136 2.215209,0.727974 3.158795,1.6787133 1.309078,1.3190032 1.785864,2.5637316 1.698019,4.4329586 -0.114669,2.439992 -1.624056,4.440441 -4.001565,5.30343 -0.841974,0.30562 -2.284496,0.393922 -3.16336,0.193642 z"
     id="path847"
     inkscape:connector-curvature="0" />
  <path
     style="fill:#0072d5;fill-opacity:0.37647059;stroke-width:0.10169491"
     d="M 10.72044,17.795162 C 9.6569987,17.551827 8.6823525,16.987277 7.8305085,16.12121 6.6389618,14.909767 6.1016949,13.62585 6.1016949,11.989831 c 0,-1.663912 0.5116701,-2.8254683 1.8183737,-4.1279414 0.618719,-0.6167157 1.0709706,-0.9684047 1.5375585,-1.195667 2.2921079,-1.1164233 4.8859399,-0.6554728 6.7152869,1.193375 1.220381,1.2333915 1.720761,2.4334194 1.723888,4.1342904 0.0058,3.142973 -2.47452,5.739909 -5.631954,5.896801 -0.589087,0.02927 -1.150856,-0.0055 -1.544408,-0.09553 z"
     id="path849"
     inkscape:connector-curvature="0" />
  <path
     style="fill:#0072d5;fill-opacity:0.37647059;stroke-width:0.10169491"
     d="M 10.70344,17.791694 C 9.6135793,17.543039 8.7821889,17.063925 7.8745415,16.161456 6.6394796,14.93344 6.1016949,13.667998 6.1016949,11.989831 c 0,-1.553032 0.467355,-2.7096516 1.5749324,-3.8976765 1.334985,-1.4319499 2.5391247,-1.9931733 4.2725257,-1.9913315 1.756372,0.00187 2.996204,0.5181324 4.223761,1.7587746 1.235012,1.248178 1.72087,2.4307134 1.723888,4.1957924 0.0042,2.478365 -1.577334,4.653616 -4.031118,5.544292 -0.862566,0.313094 -2.259705,0.397929 -3.162244,0.192012 z"
     id="path851"
     inkscape:connector-curvature="0" />
  <path
     style="fill:#0072d5;fill-opacity:0.37647059;stroke-width:0.10169491"
     d="M 10.637402,17.783939 C 9.5555574,17.509454 8.7609896,17.042846 7.8745415,16.161456 6.6394796,14.93344 6.1016949,13.667998 6.1016949,11.989831 c 0,-1.553032 0.467355,-2.7096516 1.5749324,-3.8976765 1.334985,-1.4319499 2.5391247,-1.9931733 4.2725257,-1.9913315 1.756372,0.00187 2.996204,0.5181324 4.223761,1.7587746 1.235012,1.248178 1.72087,2.4307134 1.723888,4.1957924 0.0042,2.480508 -1.577105,4.653533 -4.035949,5.546045 -0.878608,0.318919 -2.35609,0.40257 -3.223451,0.182504 z"
     id="path853"
     inkscape:connector-curvature="0" />
  <path
     style="fill:#0072d5;fill-opacity:0.37647059;stroke-width:0.10169491"
     d="M 10.830508,17.835267 C 8.7144516,17.411668 6.8054073,15.567909 6.2564358,13.417617 6.0579468,12.640146 6.0584131,11.336577 6.2574572,10.562044 6.5294184,9.5037722 6.8995912,8.8982745 7.8783229,7.9107671 8.6049442,7.1776306 8.9559744,6.9079901 9.5601375,6.6188972 11.788074,5.5528266 14.355402,6.0339188 16.181081,7.8595976 c 1.218523,1.2185238 1.713913,2.4265994 1.714514,4.1810804 5.56e-4,1.62329 -0.520764,2.855483 -1.726103,4.079816 -0.604399,0.613922 -0.942135,0.860892 -1.627119,1.189834 -1.187916,0.570459 -2.533718,0.760785 -3.711865,0.524939 z"
     id="path855"
     inkscape:connector-curvature="0" />
  <path
     style="fill:#0072d5;fill-opacity:0.37647059;stroke-width:0.10169491"
     d="M 10.830508,17.835601 C 8.6843941,17.407741 6.6525709,15.403681 6.2132517,13.281435 6.0701756,12.590269 6.0703998,11.387659 6.2137332,10.698226 6.4263837,9.6753774 6.8847864,8.9088622 7.8765101,7.9178243 8.9190769,6.8759786 9.6838855,6.4164816 10.752223,6.1900962 c 1.311595,-0.2779327 2.560451,-0.1128332 3.877432,0.5125984 1.503991,0.7142422 2.871316,2.4439779 3.16541,4.0044064 0.147744,0.783912 0.125266,2.106144 -0.04679,2.752695 -0.433187,1.627772 -1.669565,3.112757 -3.205898,3.850532 -1.18757,0.570293 -2.531855,0.760526 -3.711865,0.525273 z"
     id="path857"
     inkscape:connector-curvature="0" />
  <path
     style="fill:#0072d5;fill-opacity:0.37647059;stroke-width:0.10169491"
     d="M 9.7534234,23.685932 C 6.4337829,23.056147 3.1319947,20.622739 1.5416774,17.633898 1.0608403,16.730214 0.58780806,15.416606 0.34544176,14.31196 0.13332904,13.345201 0.10548068,10.886559 0.29557719,9.9095775 1.1299975,5.6211596 4.0646801,2.2031413 8.1355932,0.77832857 9.5095483,0.2974466 10.242049,0.19231741 12.152542,0.20181238 c 1.527058,0.007589 1.845048,0.039675 2.72481,0.27493747 3.437832,0.91933155 6.202913,3.17541235 7.794955,6.36004805 0.176953,0.3539678 0.49087,1.1319339 0.697594,1.7288136 l 0.375862,1.085236 -9.16e-4,2.3389835 -9.15e-4,2.338983 -0.378071,1.118644 c -1.409931,4.171736 -4.476671,7.078275 -8.538941,8.092881 -1.122887,0.280456 -3.936895,0.36121 -5.0734316,0.145593 z m 4.9923396,-2.442941 c 2.732789,-0.875908 4.792386,-2.684914 6.005683,-5.274974 0.654011,-1.396135 0.846213,-2.320509 0.837746,-4.029034 C 21.580731,10.2314 21.406599,9.4094008 20.761893,8.0336324 19.510212,5.3626179 17.419183,3.5600631 14.542373,2.6721485 13.87062,2.4648149 13.567423,2.4363693 12,2.4336246 10.432082,2.4308788 10.133706,2.4577502 9.4922012,2.6594698 5.9835643,3.7627531 3.5142542,6.2965371 2.6291704,9.7016949 2.3032783,10.955491 2.3036789,13.173314 2.6300043,14.328814 c 0.2634984,0.933027 0.9577249,2.453229 1.447939,3.170665 1.0644221,1.557799 2.8343216,2.899273 4.8022926,3.639839 1.0270404,0.386485 1.5763891,0.454155 3.3739991,0.415615 1.434301,-0.03075 1.729553,-0.06772 2.491526,-0.311942 z"
     id="path859"
     inkscape:connector-curvature="0" />
  <path
     style="fill:#0072d5;fill-opacity:0.37647059;stroke-width:0.10169491"
     d="M 9.8135593,23.68814 C 7.5833139,23.278376 5.3657213,22.080302 3.5988735,20.330601 1.6424456,18.393162 0.45680009,15.877522 0.20012323,13.119314 -0.1306841,9.5645125 1.0759558,6.2109743 3.6104403,3.6412348 5.5266714,1.6983488 7.940159,0.53040697 10.647096,0.23603678 c 2.623782,-0.28532756 5.128619,0.23440232 7.332198,1.52136192 2.552035,1.4904683 4.42368,3.8952614 5.471446,7.030015 0.283115,0.8470377 0.288654,0.9078495 0.291677,3.2024173 l 0.0031,2.338983 -0.375342,1.084081 c -1.185465,3.423912 -3.252411,5.832954 -6.234562,7.266431 -1.253907,0.602734 -2.234623,0.897191 -3.505807,1.052606 -1.139645,0.139333 -2.931436,0.118772 -3.8162267,-0.04379 z m 4.9322037,-2.445149 c 1.623915,-0.520494 2.877269,-1.279414 4.025688,-2.437602 1.232524,-1.243008 2.155193,-2.839558 2.599785,-4.498564 0.301674,-1.1257 0.300792,-3.495898 -0.0017,-4.6339893 C 20.929326,8.01681 19.989374,6.3881896 18.770084,5.1688992 17.616945,4.0157598 16.515437,3.3453483 14.820721,2.7651954 13.906954,2.4523849 13.831474,2.4434433 12.050847,2.4370652 9.9466204,2.429528 9.4328176,2.5406136 7.7647048,3.3637406 5.8453746,4.3108306 4.3830604,5.7713648 3.4044944,7.7186441 2.6061461,9.3073024 2.420148,10.104912 2.4084771,11.989831 c -0.011022,1.780046 0.1510051,2.51782 0.9012021,4.103544 1.1410055,2.411792 2.9826826,4.071807 5.617804,5.063664 0.9770337,0.367755 1.5478938,0.436032 3.3267538,0.397894 1.434301,-0.03075 1.729553,-0.06772 2.491526,-0.311942 z"
     id="path861"
     inkscape:connector-curvature="0" />
  <path
     style="fill:#0072d5;fill-opacity:0.37647059;stroke-width:0.10169491"
     d="M 10.02851,23.725118 C 8.4653619,23.496972 6.5248054,22.659085 5.0626603,21.580979 1.8935322,19.244238 0.19089843,15.920094 0.17609761,12.040678 0.16609915,9.42 0.84304908,7.2650035 2.3483892,5.1254237 6.3221293,-0.52255798 14.424183,-1.519198 19.695277,2.9915697 c 1.669704,1.4288592 2.969113,3.4370759 3.757405,5.8070138 0.276493,0.8312547 0.2836,0.9099224 0.288282,3.1912475 l 0.0048,2.338983 -0.375175,1.083185 c -1.182927,3.415277 -3.234581,5.807139 -6.221925,7.253653 -1.265927,0.612978 -2.243832,0.909163 -3.518877,1.065784 -0.999004,0.122713 -2.738117,0.119662 -3.601276,-0.0063 z m 3.554957,-2.234249 c 2.907344,-0.404374 5.676433,-2.494608 7.063104,-5.331547 0.744113,-1.522358 0.9445,-2.425633 0.936261,-4.220339 C 21.574971,10.227167 21.400201,9.3957479 20.761893,8.0336324 19.627174,5.6122055 17.727503,3.8518377 15.241515,2.918063 14.098722,2.4888125 12.882276,2.335111 11.279047,2.4173938 9.9000803,2.4881667 9.1141596,2.7012765 7.7556407,3.3727984 5.1606725,4.6555027 3.1811163,7.1583446 2.5744167,9.9236529 2.3189706,11.087964 2.3486545,13.298681 2.6335661,14.328814 c 0.2929368,1.059149 1.0762572,2.684058 1.6743611,3.473271 1.3775758,1.817747 3.8888899,3.400566 5.8541578,3.689727 0.840345,0.123645 2.528972,0.12318 3.421382,-9.15e-4 z"
     id="path863"
     inkscape:connector-curvature="0" />
  <path
     style="fill:#0072d5;fill-opacity:0.37647059;stroke-width:0.10169491"
     d="M 10.038619,23.726381 C 7.257109,23.319407 4.0692905,21.305517 2.3156672,18.847442 1.3725961,17.525527 0.59552479,15.650532 0.29545846,13.972881 0.1194452,12.988803 0.14570357,10.823531 0.34640686,9.771662 1.2297134,5.1423271 4.9557082,1.3446125 9.559322,0.38141212 c 1.350376,-0.28253527 3.9332,-0.25387461 5.135593,0.0569878 4.280153,1.10657518 7.314078,4.00321148 8.756422,8.36018358 0.275617,0.8325729 0.282223,0.9074797 0.285903,3.2420945 l 0.0038,2.38983 -0.387503,1.067797 c -1.703004,4.692787 -5.31514,7.72058 -9.828075,8.238174 -1.015441,0.116463 -2.65425,0.111716 -3.486805,-0.0101 z m 3.472822,-2.232346 c 3.385876,-0.424553 6.547154,-3.161106 7.689904,-6.656747 0.509902,-1.55978 0.508587,-4.193785 -0.0029,-5.72107 C 20.00981,5.5665695 16.881991,2.9007523 13.402456,2.4717188 12.041676,2.3039319 10.229989,2.4218792 9.2824922,2.7399432 5.403864,4.0419557 2.8031417,7.1801243 2.4436673,10.992029 c -0.2430177,2.576986 0.4263973,4.927851 1.9770488,6.943039 1.2951375,1.683128 3.8742785,3.282858 5.7325269,3.555639 0.840213,0.123339 2.388849,0.124874 3.358198,0.0033 z"
     id="path865"
     inkscape:connector-curvature="0" />
  <path
     style="fill:#0072d5;fill-opacity:0.37647059;stroke-width:0.10169491"
     d="M 10.038619,23.726381 C 6.8524619,23.260201 3.4512705,20.888236 1.7211318,17.92583 1.1619011,16.968295 0.56453782,15.357284 0.34964879,14.227119 0.12258462,13.032921 0.1218359,10.968523 0.34803287,9.771662 1.2222396,5.1460316 4.9439577,1.3523422 9.559322,0.38224363 c 1.34491,-0.28268531 3.929776,-0.25513849 5.135593,0.0547298 4.262245,1.09530227 7.316447,4.01179607 8.756422,8.36161007 0.275617,0.8325729 0.282223,0.9074797 0.285903,3.2420945 l 0.0038,2.38983 -0.386965,1.061096 c -1.249461,3.426139 -3.249321,5.73893 -6.205379,7.176377 -1.243524,0.604689 -2.302713,0.917046 -3.623239,1.068498 -1.015441,0.116463 -2.65425,0.111716 -3.486805,-0.0101 z m 4.503754,-2.430388 c 3.393019,-0.946529 6.182586,-3.92801 6.875715,-7.348742 0.21547,-1.06339 0.152258,-3.708891 -0.108735,-4.5506408 C 21.00072,8.401211 20.159206,6.8241502 19.478016,5.9645481 18.278565,4.4509475 16.405546,3.2133875 14.491525,2.6698257 13.792364,2.4712708 13.442022,2.4390439 12,2.4406373 9.9946657,2.4428531 9.5031535,2.5506248 7.8813559,3.3437142 5.2378545,4.6364358 3.4810253,6.7334638 2.6826198,9.5491525 2.4500439,10.369364 2.3404062,11.995144 2.4438999,13.089048 c 0.2165054,2.288413 1.4876809,4.675058 3.3045273,6.204285 1.2842523,1.080945 2.9076645,1.905102 4.2662058,2.165823 1.056774,0.202808 3.536129,0.113461 4.52774,-0.163163 z"
     id="path867"
     inkscape:connector-curvature="0" />
  <path
     style="fill:#0072d5;fill-opacity:0.37647059;stroke-width:0.10169491"
     d="M 10.576271,17.778414 C 9.5588257,17.510676 8.748425,17.025961 7.8695656,16.159484 6.6280111,14.935422 6.1016949,13.694066 6.1016949,11.989831 c 0,-1.717441 0.4486254,-2.746734 1.7748152,-4.0720067 1.0425668,-1.0418457 1.8073754,-1.5013427 2.8757129,-1.7277281 1.311595,-0.2779327 2.560451,-0.1128332 3.877432,0.5125984 1.503991,0.7142422 2.871316,2.4439779 3.16541,4.0044064 0.147744,0.783912 0.125266,2.106144 -0.04679,2.752695 -0.436708,1.641001 -1.656856,3.105381 -3.205898,3.847612 -1.312662,0.628968 -2.727368,0.796975 -3.966102,0.471006 z"
     id="path869"
     inkscape:connector-curvature="0" />
  <path
     style="fill:#0072d5;fill-opacity:0.37647059;stroke-width:0.10169491"
     d="M 10.576271,17.778414 C 9.5588257,17.510676 8.748425,17.025961 7.8695656,16.159484 6.6280111,14.935422 6.1016949,13.694066 6.1016949,11.989831 c 0,-1.727506 0.4488566,-2.7606044 1.7691898,-4.0720067 1.0485359,-1.0414435 1.8168836,-1.5021655 2.8813383,-1.7277281 0.87592,-0.1856113 1.523298,-0.1844616 2.414351,0.00429 2.181658,0.462134 4.035394,2.1986592 4.580298,4.2906878 0.192327,0.73839 0.19304,2.254601 0.0014,2.974725 -0.437866,1.645334 -1.690902,3.14795 -3.220544,3.862006 -1.318724,0.615597 -2.728304,0.77848 -3.951461,0.456611 z"
     id="path871"
     inkscape:connector-curvature="0" />
  <path
     style="fill:#0072d5;fill-opacity:0.37647059;stroke-width:0.10169491"
     d="M 10.576271,17.778414 C 9.5531718,17.509188 8.7488679,17.026858 7.8766466,16.159484 6.6143035,14.904156 6.1064584,13.718847 6.1031981,12.02026 6.0998275,10.264207 6.5422224,9.2374993 7.8708847,7.9178243 8.9194206,6.8763808 9.6877683,6.4156588 10.752223,6.1900962 c 0.87592,-0.1856113 1.523298,-0.1844616 2.414351,0.00429 2.181658,0.462134 4.035394,2.1986592 4.580298,4.2906878 0.173703,0.666891 0.195893,2.204429 0.04153,2.877641 -0.365667,1.594758 -1.720942,3.240326 -3.26067,3.95909 -1.318724,0.615597 -2.728304,0.77848 -3.951461,0.456611 z"
     id="path873"
     inkscape:connector-curvature="0" />
</svg>
