<?xml version="1.0" encoding="UTF-8" standalone="no"?>
<svg
   xmlns:dc="http://purl.org/dc/elements/1.1/"
   xmlns:cc="http://creativecommons.org/ns#"
   xmlns:rdf="http://www.w3.org/1999/02/22-rdf-syntax-ns#"
   xmlns:svg="http://www.w3.org/2000/svg"
   xmlns="http://www.w3.org/2000/svg"
   xmlns:sodipodi="http://sodipodi.sourceforge.net/DTD/sodipodi-0.dtd"
   xmlns:inkscape="http://www.inkscape.org/namespaces/inkscape"
   width="24"
   height="24"
   viewBox="0 0 24 24"
   version="1.1"
   id="svg10"
   sodipodi:docname="ic-check-active.svg"
   inkscape:version="0.92.3 (2405546, 2018-03-11)">
  <metadata
     id="metadata14">
    <rdf:RDF>
      <cc:Work
         rdf:about="">
        <dc:format>image/svg+xml</dc:format>
        <dc:type
           rdf:resource="http://purl.org/dc/dcmitype/StillImage" />
      </cc:Work>
    </rdf:RDF>
  </metadata>
  <sodipodi:namedview
     pagecolor="#ffffff"
     bordercolor="#666666"
     borderopacity="1"
     objecttolerance="10"
     gridtolerance="10"
     guidetolerance="10"
     inkscape:pageopacity="0"
     inkscape:pageshadow="2"
     inkscape:window-width="1853"
     inkscape:window-height="1145"
     id="namedview12"
     showgrid="false"
     inkscape:zoom="9.8333333"
     inkscape:cx="-4.4745763"
     inkscape:cy="12"
     inkscape:window-x="67"
     inkscape:window-y="27"
     inkscape:window-maximized="1"
     inkscape:current-layer="svg10" />
  <defs
     id="defs4">
    <style
       type="text/css"
       id="style2">
            .cls-1{fill:#5c4b7d;fill-rule:evenodd}.cls-2{fill:none}
        </style>
  </defs>
  <g
     id="check_active"
     transform="translate(-290 -244)">
    <g
       id="Group_8199"
       data-name="Group 8199"
       transform="translate(291 245)">
      <path
         id="check_on_light"
         d="M22.556 3H5.444A2.452 2.452 0 0 0 3 5.444v17.112A2.452 2.452 0 0 0 5.444 25h17.112A2.452 2.452 0 0 0 25 22.556V5.444A2.452 2.452 0 0 0 22.556 3zm-11 17.111l-6.112-5.876 1.712-1.645 4.4 4.231 9.289-8.932 1.711 1.645-11 10.577z"
         class="cls-1"
         transform="translate(-3 -3)" />
    </g>
    <path
       id="Rectangle_4538"
       d="M0 0h24v24H0z"
       class="cls-2"
       data-name="Rectangle 4538"
       transform="translate(290 244)" />
  </g>
  <path
     style="fill:#072d56;fill-opacity:0;stroke-width:0.10169491"
     d="M 2.3622779,22.660359 C 1.7203138,22.340454 1.2685558,21.757082 1.1164384,21.051559 1.038344,20.689356 1.0140429,17.85504 1.0361285,11.684746 L 1.0677966,2.8372881 1.2892458,2.4235715 c 0.2945535,-0.550292 0.9441284,-1.1236911 1.4238953,-1.2569148 0.5392615,-0.1497444 18.0344559,-0.1497444 18.5737179,0 0.479767,0.1332237 1.129341,0.7066228 1.423896,1.2569148 l 0.221448,0.4137166 0.03167,8.8474579 c 0.02209,6.170294 -0.0022,9.00461 -0.08031,9.366813 -0.152118,0.705523 -0.603876,1.288895 -1.24584,1.6088 l -0.525114,0.261675 H 12 2.8873921 Z M 15.094692,12.854237 C 18.09319,9.9737288 20.534136,7.5711864 20.519016,7.5152542 20.503897,7.459322 20.120455,7.0572601 19.666923,6.6217834 l -0.824601,-0.791776 -4.605909,4.4273696 c -2.53325,2.435052 -4.6375474,4.427369 -4.6762161,4.427369 -0.038669,0 -1.0496708,-0.937536 -2.2466714,-2.083413 L 5.1371608,10.517921 4.296832,11.353884 c -0.4621809,0.45978 -0.8264635,0.87756 -0.809517,0.9284 0.047717,0.143151 6.0123684,5.855724 6.0883614,5.831056 0.036961,-0.012 2.5205176,-2.378594 5.5190156,-5.259103 z"
     id="path821"
     inkscape:connector-curvature="0" />
  <path
     style="fill:#072d56;fill-opacity:0;stroke-width:0.10169491"
     d="M 2.3622779,22.660359 C 1.7203138,22.340454 1.2685558,21.757082 1.1164384,21.051559 1.038344,20.689356 1.0140429,17.85504 1.0361285,11.684746 L 1.0677966,2.8372881 1.2892458,2.4235715 c 0.2945535,-0.550292 0.9441284,-1.1236911 1.4238953,-1.2569148 0.5392615,-0.1497444 18.0344559,-0.1497444 18.5737179,0 0.479767,0.1332237 1.129341,0.7066228 1.423896,1.2569148 l 0.221448,0.4137166 0.03167,8.8474579 c 0.02209,6.170294 -0.0022,9.00461 -0.08031,9.366813 -0.152118,0.705523 -0.603876,1.288895 -1.24584,1.6088 l -0.525114,0.261675 H 12 2.8873921 Z M 15.094692,12.854237 C 18.09319,9.9737288 20.534136,7.5711864 20.519016,7.5152542 20.503897,7.459322 20.120455,7.0572601 19.666923,6.6217834 l -0.824601,-0.791776 -4.605909,4.4273696 c -2.53325,2.435052 -4.6375474,4.427369 -4.6762161,4.427369 -0.038669,0 -1.0496708,-0.937536 -2.2466714,-2.083413 L 5.1371608,10.517921 4.296832,11.353884 c -0.4621809,0.45978 -0.8264635,0.87756 -0.809517,0.9284 0.047717,0.143151 6.0123684,5.855724 6.0883614,5.831056 0.036961,-0.012 2.5205176,-2.378594 5.5190156,-5.259103 z"
     id="path823"
     inkscape:connector-curvature="0" />
  <path
     style="fill:#072d56;fill-opacity:0;stroke-width:0.10169491"
     d="M 2.3622779,22.660359 C 1.7203138,22.340454 1.2685558,21.757082 1.1164384,21.051559 1.038344,20.689356 1.0140429,17.85504 1.0361285,11.684746 L 1.0677966,2.8372881 1.2892458,2.4235715 c 0.2945535,-0.550292 0.9441284,-1.1236911 1.4238953,-1.2569148 0.5392615,-0.1497444 18.0344559,-0.1497444 18.5737179,0 0.479767,0.1332237 1.129341,0.7066228 1.423896,1.2569148 l 0.221448,0.4137166 0.03167,8.8474579 c 0.02209,6.170294 -0.0022,9.00461 -0.08031,9.366813 -0.152118,0.705523 -0.603876,1.288895 -1.24584,1.6088 l -0.525114,0.261675 H 12 2.8873921 Z M 15.094692,12.854237 C 18.09319,9.9737288 20.534136,7.5711864 20.519016,7.5152542 20.503897,7.459322 20.120455,7.0572601 19.666923,6.6217834 l -0.824601,-0.791776 -4.605909,4.4273696 c -2.53325,2.435052 -4.6375474,4.427369 -4.6762161,4.427369 -0.038669,0 -1.0496708,-0.937536 -2.2466714,-2.083413 L 5.1371608,10.517921 4.296832,11.353884 c -0.4621809,0.45978 -0.8264635,0.87756 -0.809517,0.9284 0.047717,0.143151 6.0123684,5.855724 6.0883614,5.831056 0.036961,-0.012 2.5205176,-2.378594 5.5190156,-5.259103 z"
     id="path825"
     inkscape:connector-curvature="0" />
  <path
     style="fill:#072d56;fill-opacity:0;stroke-width:0.10169491"
     d="M 2.3622779,22.660359 C 1.7203138,22.340454 1.2685558,21.757082 1.1164384,21.051559 1.038344,20.689356 1.0140429,17.85504 1.0361285,11.684746 L 1.0677966,2.8372881 1.2892458,2.4235715 c 0.2945535,-0.550292 0.9441284,-1.1236911 1.4238953,-1.2569148 0.5392615,-0.1497444 18.0344559,-0.1497444 18.5737179,0 0.479767,0.1332237 1.129341,0.7066228 1.423896,1.2569148 l 0.221448,0.4137166 0.03167,8.8474579 c 0.02209,6.170294 -0.0022,9.00461 -0.08031,9.366813 -0.152118,0.705523 -0.603876,1.288895 -1.24584,1.6088 l -0.525114,0.261675 H 12 2.8873921 Z M 15.094692,12.854237 C 18.09319,9.9737288 20.534136,7.5711864 20.519016,7.5152542 20.503897,7.459322 20.120455,7.0572601 19.666923,6.6217834 l -0.824601,-0.791776 -4.605909,4.4273696 c -2.53325,2.435052 -4.6375474,4.427369 -4.6762161,4.427369 -0.038669,0 -1.0496708,-0.937536 -2.2466714,-2.083413 L 5.1371608,10.517921 4.296832,11.353884 c -0.4621809,0.45978 -0.8264635,0.87756 -0.809517,0.9284 0.047717,0.143151 6.0123684,5.855724 6.0883614,5.831056 0.036961,-0.012 2.5205176,-2.378594 5.5190156,-5.259103 z"
     id="path827"
     inkscape:connector-curvature="0" />
  <path
     style="fill:#072d56;fill-opacity:0;stroke-width:0.10169491"
     d="M 2.3622779,22.660359 C 1.7203138,22.340454 1.2685558,21.757082 1.1164384,21.051559 1.038344,20.689356 1.0140429,17.85504 1.0361285,11.684746 L 1.0677966,2.8372881 1.2892458,2.4235715 c 0.2945535,-0.550292 0.9441284,-1.1236911 1.4238953,-1.2569148 0.5392615,-0.1497444 18.0344559,-0.1497444 18.5737179,0 0.479767,0.1332237 1.129341,0.7066228 1.423896,1.2569148 l 0.221448,0.4137166 0.03167,8.8474579 c 0.02209,6.170294 -0.0022,9.00461 -0.08031,9.366813 -0.152118,0.705523 -0.603876,1.288895 -1.24584,1.6088 l -0.525114,0.261675 H 12 2.8873921 Z M 15.094692,12.854237 C 18.09319,9.9737288 20.534136,7.5711864 20.519016,7.5152542 20.503897,7.459322 20.120455,7.0572601 19.666923,6.6217834 l -0.824601,-0.791776 -4.605909,4.4273696 c -2.53325,2.435052 -4.6375474,4.427369 -4.6762161,4.427369 -0.038669,0 -1.0496708,-0.937536 -2.2466714,-2.083413 L 5.1371608,10.517921 4.296832,11.353884 c -0.4621809,0.45978 -0.8264635,0.87756 -0.809517,0.9284 0.047717,0.143151 6.0123684,5.855724 6.0883614,5.831056 0.036961,-0.012 2.5205176,-2.378594 5.5190156,-5.259103 z"
     id="path829"
     inkscape:connector-curvature="0" />
  <path
     style="fill:#54d8fc;fill-opacity:0;stroke-width:0.10169491"
     d="M 2.5220339,22.760142 C 2.0615844,22.561009 1.5446307,22.062054 1.2673597,21.549153 l -0.2199021,-0.40678 v -9.050848 c 0,-8.5193102 0.010904,-9.0791059 0.1856642,-9.5320312 C 1.454757,1.9850839 2.1324333,1.3490012 2.7057806,1.1772221 2.9986732,1.0894694 5.4995194,1.0576272 12.098611,1.0576272 h 8.993658 l 0.531286,0.2647506 c 0.292207,0.1456129 0.643514,0.411891 0.780683,0.5917292 0.576332,0.7556098 0.558858,0.4366015 0.55401,10.113933 -0.0036,7.177934 -0.03095,8.98515 -0.140629,9.292505 -0.217138,0.60846 -0.653197,1.095199 -1.215887,1.357201 l -0.520376,0.242301 -9.101695,-0.003 C 4.0818508,22.914468 2.8308868,22.893712 2.5220339,22.760142 Z M 15.141536,12.805853 20.643808,7.5201803 19.743938,6.6863647 18.844068,5.852549 18.386441,6.2867547 C 18.134746,6.5255678 16.064394,8.512812 13.785659,10.702853 11.506924,12.892894 9.6077713,14.68452 9.56532,14.684245 9.5228685,14.68394 8.5344129,13.768716 7.3687518,12.650347 6.2030907,11.531978 5.1952375,10.616949 5.1290779,10.616949 c -0.06616,0 -0.4846499,0.366509 -0.9299784,0.814466 l -0.8096884,0.814465 1.9307182,1.85063 c 1.0618949,1.017846 2.4341079,2.343991 3.0493622,2.946988 0.6152542,0.602997 1.1526477,1.085485 1.1942076,1.072193 0.04156,-0.01329 2.5515859,-2.402718 5.5778369,-5.309838 z"
     id="path16"
     inkscape:connector-curvature="0" />
  <path
     style="fill:#007ce8;fill-opacity:0;stroke-width:0.10169491"
     d="M 2.5220339,22.760142 C 2.0615844,22.561009 1.5446307,22.062054 1.2673597,21.549153 l -0.2199021,-0.40678 v -9.050848 c 0,-8.5193102 0.010904,-9.0791059 0.1856642,-9.5320312 C 1.454757,1.9850839 2.1324333,1.3490012 2.7057806,1.1772221 2.9986732,1.0894694 5.4995194,1.0576272 12.098611,1.0576272 h 8.993658 l 0.531286,0.2647506 c 0.292207,0.1456129 0.643514,0.411891 0.780683,0.5917292 0.576332,0.7556098 0.558858,0.4366015 0.55401,10.113933 -0.0036,7.177934 -0.03095,8.98515 -0.140629,9.292505 -0.217138,0.60846 -0.653197,1.095199 -1.215887,1.357201 l -0.520376,0.242301 -9.101695,-0.003 C 4.0818508,22.914468 2.8308868,22.893712 2.5220339,22.760142 Z M 15.141536,12.805853 20.643808,7.5201803 19.743938,6.6863647 18.844068,5.852549 18.386441,6.2867547 C 18.134746,6.5255678 16.064394,8.512812 13.785659,10.702853 11.506924,12.892894 9.6077713,14.68452 9.56532,14.684245 9.5228685,14.68394 8.5344129,13.768716 7.3687518,12.650347 6.2030907,11.531978 5.1952375,10.616949 5.1290779,10.616949 c -0.06616,0 -0.4846499,0.366509 -0.9299784,0.814466 l -0.8096884,0.814465 1.9307182,1.85063 c 1.0618949,1.017846 2.4341079,2.343991 3.0493622,2.946988 0.6152542,0.602997 1.1526477,1.085485 1.1942076,1.072193 0.04156,-0.01329 2.5515859,-2.402718 5.5778369,-5.309838 z"
     id="path18"
     inkscape:connector-curvature="0" />
  <path
     style="fill:#0064e0;fill-opacity:0;stroke-width:0.10169491"
     d="M 2.5220339,22.760142 C 2.0615844,22.561009 1.5446307,22.062054 1.2673597,21.549153 l -0.2199021,-0.40678 v -9.050848 c 0,-8.5193102 0.010904,-9.0791059 0.1856642,-9.5320312 C 1.454757,1.9850839 2.1324333,1.3490012 2.7057806,1.1772221 2.9986732,1.0894694 5.4995194,1.0576272 12.098611,1.0576272 h 8.993658 l 0.531286,0.2647506 c 0.292207,0.1456129 0.643514,0.411891 0.780683,0.5917292 0.576332,0.7556098 0.558858,0.4366015 0.55401,10.113933 -0.0036,7.177934 -0.03095,8.98515 -0.140629,9.292505 -0.217138,0.60846 -0.653197,1.095199 -1.215887,1.357201 l -0.520376,0.242301 -9.101695,-0.003 C 4.0818508,22.914468 2.8308868,22.893712 2.5220339,22.760142 Z M 15.141536,12.805853 20.643808,7.5201803 19.743938,6.6863647 18.844068,5.852549 18.386441,6.2867547 C 18.134746,6.5255678 16.064394,8.512812 13.785659,10.702853 11.506924,12.892894 9.6077713,14.68452 9.56532,14.684245 9.5228685,14.68394 8.5344129,13.768716 7.3687518,12.650347 6.2030907,11.531978 5.1952375,10.616949 5.1290779,10.616949 c -0.06616,0 -0.4846499,0.366509 -0.9299784,0.814466 l -0.8096884,0.814465 1.9307182,1.85063 c 1.0618949,1.017846 2.4341079,2.343991 3.0493622,2.946988 0.6152542,0.602997 1.1526477,1.085485 1.1942076,1.072193 0.04156,-0.01329 2.5515859,-2.402718 5.5778369,-5.309838 z"
     id="path20"
     inkscape:connector-curvature="0" />
  <path
     style="fill:#0064e0;fill-opacity:0;stroke-width:0.10169491"
     d="M 2.5220339,22.760142 C 2.0615844,22.561009 1.5446307,22.062054 1.2673597,21.549153 l -0.2199021,-0.40678 v -9.050848 c 0,-8.5193102 0.010904,-9.0791059 0.1856642,-9.5320312 C 1.454757,1.9850839 2.1324333,1.3490012 2.7057806,1.1772221 2.9986732,1.0894694 5.4995194,1.0576272 12.098611,1.0576272 h 8.993658 l 0.531286,0.2647506 c 0.292207,0.1456129 0.643514,0.411891 0.780683,0.5917292 0.576332,0.7556098 0.558858,0.4366015 0.55401,10.113933 -0.0036,7.177934 -0.03095,8.98515 -0.140629,9.292505 -0.217138,0.60846 -0.653197,1.095199 -1.215887,1.357201 l -0.520376,0.242301 -9.101695,-0.003 C 4.0818508,22.914468 2.8308868,22.893712 2.5220339,22.760142 Z M 15.141536,12.805853 20.643808,7.5201803 19.743938,6.6863647 18.844068,5.852549 18.386441,6.2867547 C 18.134746,6.5255678 16.064394,8.512812 13.785659,10.702853 11.506924,12.892894 9.6077713,14.68452 9.56532,14.684245 9.5228685,14.68394 8.5344129,13.768716 7.3687518,12.650347 6.2030907,11.531978 5.1952375,10.616949 5.1290779,10.616949 c -0.06616,0 -0.4846499,0.366509 -0.9299784,0.814466 l -0.8096884,0.814465 1.9307182,1.85063 c 1.0618949,1.017846 2.4341079,2.343991 3.0493622,2.946988 0.6152542,0.602997 1.1526477,1.085485 1.1942076,1.072193 0.04156,-0.01329 2.5515859,-2.402718 5.5778369,-5.309838 z"
     id="path22"
     inkscape:connector-curvature="0" />
  <path
     style="opacity:1;vector-effect:none;fill:#0072d5;fill-opacity:0.3764706;stroke-width:0.01034186;stroke-linecap:butt;stroke-linejoin:miter;stroke-miterlimit:4;stroke-dasharray:none;stroke-dashoffset:0;stroke-opacity:1"
     d="M 2.5220339,22.760142 C 2.0615844,22.561009 1.5446307,22.062054 1.2673597,21.549153 l -0.2199021,-0.40678 v -9.050848 c 0,-8.5193102 0.010904,-9.0791059 0.1856642,-9.5320312 C 1.454757,1.9850839 2.1324333,1.3490012 2.7057806,1.1772221 2.9986732,1.0894694 5.4995194,1.0576272 12.098611,1.0576272 h 8.993658 l 0.531286,0.2647506 c 0.292207,0.1456129 0.643514,0.411891 0.780683,0.5917292 0.576332,0.7556098 0.558858,0.4366015 0.55401,10.113933 -0.0036,7.177934 -0.03095,8.98515 -0.140629,9.292505 -0.217138,0.60846 -0.653197,1.095199 -1.215887,1.357201 l -0.520376,0.242301 -9.101695,-0.003 C 4.0818508,22.914468 2.8308868,22.893712 2.5220339,22.760142 Z M 15.141536,12.805853 20.643808,7.5201803 19.743938,6.6863647 18.844068,5.852549 18.386441,6.2867547 C 18.134746,6.5255678 16.064394,8.512812 13.785659,10.702853 11.506924,12.892894 9.6077713,14.68452 9.56532,14.684245 9.5228685,14.68394 8.5344129,13.768716 7.3687518,12.650347 6.2030907,11.531978 5.1952375,10.616949 5.1290779,10.616949 c -0.06616,0 -0.4846499,0.366509 -0.9299784,0.814466 l -0.8096884,0.814465 1.9307182,1.85063 c 1.0618949,1.017846 2.4341079,2.343991 3.0493622,2.946988 0.6152542,0.602997 1.1526477,1.085485 1.1942076,1.072193 0.04156,-0.01329 2.5515859,-2.402718 5.5778369,-5.309838 z"
     id="path24"
     inkscape:connector-curvature="0" />
</svg>
