<?xml version="1.0" encoding="UTF-8" standalone="no"?>
<svg
   xmlns:dc="http://purl.org/dc/elements/1.1/"
   xmlns:cc="http://creativecommons.org/ns#"
   xmlns:rdf="http://www.w3.org/1999/02/22-rdf-syntax-ns#"
   xmlns:svg="http://www.w3.org/2000/svg"
   xmlns="http://www.w3.org/2000/svg"
   xmlns:sodipodi="http://sodipodi.sourceforge.net/DTD/sodipodi-0.dtd"
   xmlns:inkscape="http://www.inkscape.org/namespaces/inkscape"
   width="22px"
   height="22px"
   viewBox="0 0 22 22"
   version="1.1"
   id="svg11"
   sodipodi:docname="ic-check-box-indeterminate.svg"
   inkscape:version="0.92.3 (2405546, 2018-03-11)">
  <metadata
     id="metadata17">
    <rdf:RDF>
      <cc:Work
         rdf:about="">
        <dc:format>image/svg+xml</dc:format>
        <dc:type
           rdf:resource="http://purl.org/dc/dcmitype/StillImage" />
      </cc:Work>
    </rdf:RDF>
  </metadata>
  <defs
     id="defs15" />
  <sodipodi:namedview
     pagecolor="#ffffff"
     bordercolor="#666666"
     borderopacity="1"
     objecttolerance="10"
     gridtolerance="10"
     guidetolerance="10"
     inkscape:pageopacity="0"
     inkscape:pageshadow="2"
     inkscape:window-width="1853"
     inkscape:window-height="1145"
     id="namedview13"
     showgrid="false"
     inkscape:zoom="10.727273"
     inkscape:cx="-4.1016949"
     inkscape:cy="11"
     inkscape:window-x="67"
     inkscape:window-y="27"
     inkscape:window-maximized="1"
     inkscape:current-layer="svg11" />
  <!-- Generator: Sketch 54.1 (76490) - https://sketchapp.com -->
  <title
     id="title2">ic-check-active</title>
  <desc
     id="desc4">Created with Sketch.</desc>
  <g
     id="Page-1"
     stroke="none"
     stroke-width="1"
     fill="none"
     fill-rule="evenodd">
    <g
       id="ic-check-active"
       transform="translate(-1.000000, -1.000000)">
      <g
         id="Group_8199"
         transform="translate(1.000000, 1.000000)"
         fill="#5C4B7D">
        <path
           d="M19.556,0 L2.444,0 C1.09603898,0.0043907874 0.0043907874,1.09603898 4.4408921e-16,2.444 L4.4408921e-16,19.556 C0.0043907874,20.903961 1.09603898,21.9956092 2.444,22 L19.556,22 C20.903961,21.9956092 21.9956092,20.903961 22,19.556 L22,2.444 C21.9956092,1.09603898 20.903961,0.0043907874 19.556,0 Z M3,10 L19,10 L19,13 L3,13 L3,10 Z"
           id="check_on_light" />
      </g>
      <polygon
         id="Rectangle_4538"
         points="0 0 24 0 24 24 0 24" />
    </g>
  </g>
  <path
     style="fill:#0072d5;fill-opacity:0.3764706;stroke-width:0.09322034"
     d="M 1.6245971,21.807204 C 1.0891582,21.616343 0.61947359,21.193157 0.3309322,20.641614 L 0.07457627,20.151592 v -9.127943 c 0,-9.8977487 -0.02572448,-9.3865551 0.50753627,-10.08569597 C 0.71269313,0.76675302 1.0399464,0.50455436 1.3093422,0.35528931 l 0.4898103,-0.271391 9.0361595,-0.0251199 c 10.264654,-0.02853502 9.610737,-0.07415018 10.411134,0.72624682 0.774464,0.77446467 0.73491,0.22517297 0.73491,10.20565277 0,9.749107 0.02439,9.352753 -0.621953,10.107858 -0.191353,0.223552 -0.557509,0.503059 -0.817778,0.624255 l -0.471286,0.219455 -9.042373,-0.0032 C 3.5811286,21.936448 1.9218951,21.91318 1.6245971,21.807206 Z M 18.998305,11.50339 V 9.9186441 H 10.981356 2.9644068 v 1.5225989 c 0,0.83743 0.027966,1.550565 0.062147,1.584745 0.034181,0.03418 3.6418079,0.06215 8.0169492,0.06215 h 7.954802 z"
     id="path19"
     inkscape:connector-curvature="0" />
</svg>
