<?xml version="1.0" encoding="UTF-8" standalone="no"?>
<svg
   xmlns:dc="http://purl.org/dc/elements/1.1/"
   xmlns:cc="http://creativecommons.org/ns#"
   xmlns:rdf="http://www.w3.org/1999/02/22-rdf-syntax-ns#"
   xmlns:svg="http://www.w3.org/2000/svg"
   xmlns="http://www.w3.org/2000/svg"
   xmlns:sodipodi="http://sodipodi.sourceforge.net/DTD/sodipodi-0.dtd"
   xmlns:inkscape="http://www.inkscape.org/namespaces/inkscape"
   width="30px"
   height="22px"
   viewBox="0 0 30 22"
   version="1.1"
   id="svg10"
   sodipodi:docname="ic-chevron-right-liliac.svg"
   inkscape:version="0.92.3 (2405546, 2018-03-11)">
  <metadata
     id="metadata14">
    <rdf:RDF>
      <cc:Work
         rdf:about="">
        <dc:format>image/svg+xml</dc:format>
        <dc:type
           rdf:resource="http://purl.org/dc/dcmitype/StillImage" />
      </cc:Work>
    </rdf:RDF>
  </metadata>
  <sodipodi:namedview
     pagecolor="#ffffff"
     bordercolor="#666666"
     borderopacity="1"
     objecttolerance="10"
     gridtolerance="10"
     guidetolerance="10"
     inkscape:pageopacity="0"
     inkscape:pageshadow="2"
     inkscape:window-width="1853"
     inkscape:window-height="1145"
     id="namedview12"
     showgrid="false"
     inkscape:zoom="10.727273"
     inkscape:cx="15"
     inkscape:cy="11"
     inkscape:window-x="67"
     inkscape:window-y="27"
     inkscape:window-maximized="1"
     inkscape:current-layer="svg10" />
  <defs
     id="defs4">
    <style
       type="text/css"
       id="style2">
            .cls-1{fill:#b088ff}.cls-2{fill:none}
        </style>
  </defs>
  <g
     id="ic_chevron_right"
     transform="rotate(-90 12 12)">
    <g
       id="Group_8822"
       data-name="Group 8822">
      <path
         id="Path_18879"
         d="M12 16.365L4.319 9.233l1.362-1.466L12 13.635l6.319-5.868 1.361 1.466z"
         class="cls-1"
         data-name="Path 18879" />
    </g>
    <path
       id="Rectangle_4407"
       d="M0 0h24v24H0z"
       class="cls-2"
       data-name="Rectangle 4407" />
  </g>
  <path
     style="fill:#00c8fc;fill-opacity:0.31372549;stroke-width:0.09322034"
     d="M 8.4923743,18.959862 7.8110198,18.314539 10.683052,15.227068 C 12.26267,13.528959 13.566257,12.090836 13.579913,12.031239 13.593568,11.971642 12.299802,10.517585 10.704877,8.8 L 7.805014,5.6771186 8.4893714,5.0497688 C 8.865768,4.7047263 9.199221,4.4215695 9.2303782,4.4205315 c 0.031157,-0.00104 1.6388508,1.7014958 3.5726528,3.7834088 l 3.516003,3.7852967 -0.182905,0.199873 c -1.741415,1.902969 -6.8525562,7.382816 -6.8992593,7.396957 -0.034727,0.01051 -0.3697504,-0.271278 -0.7444954,-0.626205 z"
     id="path821"
     inkscape:connector-curvature="0" />
</svg>
