<?xml version="1.0" encoding="UTF-8" standalone="no"?>
<svg
   xmlns:dc="http://purl.org/dc/elements/1.1/"
   xmlns:cc="http://creativecommons.org/ns#"
   xmlns:rdf="http://www.w3.org/1999/02/22-rdf-syntax-ns#"
   xmlns:svg="http://www.w3.org/2000/svg"
   xmlns="http://www.w3.org/2000/svg"
   xmlns:sodipodi="http://sodipodi.sourceforge.net/DTD/sodipodi-0.dtd"
   xmlns:inkscape="http://www.inkscape.org/namespaces/inkscape"
   width="30px"
   height="22px"
   viewBox="0 0 30 22"
   version="1.1"
   id="svg10"
   sodipodi:docname="ic-clear-liliac.svg"
   inkscape:version="0.92.3 (2405546, 2018-03-11)">
  <metadata
     id="metadata16">
    <rdf:RDF>
      <cc:Work
         rdf:about="">
        <dc:format>image/svg+xml</dc:format>
        <dc:type
           rdf:resource="http://purl.org/dc/dcmitype/StillImage" />
      </cc:Work>
    </rdf:RDF>
  </metadata>
  <defs
     id="defs14" />
  <sodipodi:namedview
     pagecolor="#ffffff"
     bordercolor="#666666"
     borderopacity="1"
     objecttolerance="10"
     gridtolerance="10"
     guidetolerance="10"
     inkscape:pageopacity="0"
     inkscape:pageshadow="2"
     inkscape:window-width="1853"
     inkscape:window-height="1145"
     id="namedview12"
     showgrid="false"
     inkscape:zoom="10.727273"
     inkscape:cx="15"
     inkscape:cy="11"
     inkscape:window-x="67"
     inkscape:window-y="27"
     inkscape:window-maximized="1"
     inkscape:current-layer="svg10" />
  <!-- Generator: Sketch 52.6 (67491) - http://www.bohemiancoding.com/sketch -->
  <title
     id="title2">Clear Purple</title>
  <desc
     id="desc4">Created with Sketch.</desc>
  <g
     id="Clear-Purple"
     stroke="none"
     stroke-width="1"
     fill="none"
     fill-rule="evenodd">
    <g
       id="ic-clear-purple"
       transform="translate(5.000000, 3.000000)">
      <polygon
         id="Path_18950"
         fill="#b088ff"
         points="13.707 3.707 12.293 2.293 8 6.586 3.707 2.293 2.293 3.707 6.586 8 2.293 12.293 3.707 13.707 8 9.414 12.293 13.707 13.707 12.293 9.414 8" />
      <polygon
         id="Rectangle_4602"
         points="0 0 16 0 16 16 0 16" />
    </g>
  </g>
  <path
     style="fill:#00c8fc;fill-opacity:0.31372549;stroke-width:0.09322034"
     d="M 8.0309437,15.953976 7.3573432,15.27585 9.4540953,13.180651 c 1.1532137,-1.152359 2.0967517,-2.137163 2.0967517,-2.188452 0,-0.05129 -0.944214,-1.0381377 -2.098254,-2.1929965 L 7.3543384,6.6994594 8.0324562,6.0258673 8.710574,5.3522753 l 2.14185,2.1433696 2.14185,2.1433697 2.146346,-2.1448883 2.146346,-2.1448882 0.673608,0.6781341 0.673608,0.678134 -2.096752,2.0951988 c -1.153214,1.1523593 -2.096752,2.137163 -2.096752,2.188452 0,0.05129 0.944215,1.038138 2.098255,2.192996 l 2.098254,2.099743 -0.678126,0.673601 -0.678126,0.6736 -2.095199,-2.096752 c -1.15236,-1.153213 -2.137163,-2.096752 -2.188452,-2.096752 -0.05129,0 -1.038138,0.944215 -2.192997,2.098255 l -2.0997429,2.098255 z"
     id="path823"
     inkscape:connector-curvature="0" />
</svg>
