<?xml version="1.0" encoding="UTF-8" standalone="no"?>
<svg
   xmlns:dc="http://purl.org/dc/elements/1.1/"
   xmlns:cc="http://creativecommons.org/ns#"
   xmlns:rdf="http://www.w3.org/1999/02/22-rdf-syntax-ns#"
   xmlns:svg="http://www.w3.org/2000/svg"
   xmlns="http://www.w3.org/2000/svg"
   xmlns:sodipodi="http://sodipodi.sourceforge.net/DTD/sodipodi-0.dtd"
   xmlns:inkscape="http://www.inkscape.org/namespaces/inkscape"
   width="24px"
   height="24px"
   viewBox="0 0 24 24"
   version="1.1"
   id="svg11"
   sodipodi:docname="ic-label-liliac.svg"
   inkscape:version="0.92.3 (2405546, 2018-03-11)">
  <metadata
     id="metadata17">
    <rdf:RDF>
      <cc:Work
         rdf:about="">
        <dc:format>image/svg+xml</dc:format>
        <dc:type
           rdf:resource="http://purl.org/dc/dcmitype/StillImage" />
      </cc:Work>
    </rdf:RDF>
  </metadata>
  <defs
     id="defs15" />
  <sodipodi:namedview
     pagecolor="#ffffff"
     bordercolor="#666666"
     borderopacity="1"
     objecttolerance="10"
     gridtolerance="10"
     guidetolerance="10"
     inkscape:pageopacity="0"
     inkscape:pageshadow="2"
     inkscape:window-width="1853"
     inkscape:window-height="1145"
     id="namedview13"
     showgrid="false"
     inkscape:zoom="9.8333333"
     inkscape:cx="-1.4745763"
     inkscape:cy="12"
     inkscape:window-x="67"
     inkscape:window-y="27"
     inkscape:window-maximized="1"
     inkscape:current-layer="svg11" />
  <!-- Generator: Sketch 55.2 (78181) - https://sketchapp.com -->
  <title
     id="title2">Artboard</title>
  <desc
     id="desc4">Created with Sketch.</desc>
  <g
     id="Artboard"
     stroke="none"
     stroke-width="1"
     fill="none"
     fill-rule="evenodd">
    <g
       id="ic-label-liliac"
       transform="translate(2.000000, 2.000000)">
      <g
         id="Group_8996"
         transform="translate(5.000000, 2.000000)"
         fill="#B088FF"
         fill-rule="nonzero">
        <path
           d="M10,16.414 L5,11.414 L0,16.414 L0,0 L10,0 L10,16.414 Z M5,8.586 L8,11.586 L8,2 L2,2 L2,11.586 L5,8.586 Z"
           id="Path_18961" />
      </g>
      <polygon
         id="Rectangle_4641"
         points="0 0 20 0 20 20 0 20" />
    </g>
  </g>
  <path
     style="fill:#00c8fc;fill-opacity:0.31372549;stroke-width:0.10169491"
     d="M 7.0677966,12.167018 V 4.0067797 H 12 16.932203 V 12.167535 20.32829 L 14.466614,17.8627 12.001025,15.397111 9.5344107,17.862184 7.0677966,20.327257 Z M 13.500831,14.150816 15,15.649986 V 10.794484 5.9389831 H 12 9 v 4.8546609 4.85466 l 1.500831,-1.498328 1.50083,-1.498329 z"
     id="path824"
     inkscape:connector-curvature="0" />
</svg>
