<?xml version="1.0" encoding="UTF-8" standalone="no"?>
<svg
   xmlns:dc="http://purl.org/dc/elements/1.1/"
   xmlns:cc="http://creativecommons.org/ns#"
   xmlns:rdf="http://www.w3.org/1999/02/22-rdf-syntax-ns#"
   xmlns:svg="http://www.w3.org/2000/svg"
   xmlns="http://www.w3.org/2000/svg"
   xmlns:sodipodi="http://sodipodi.sourceforge.net/DTD/sodipodi-0.dtd"
   xmlns:inkscape="http://www.inkscape.org/namespaces/inkscape"
   width="24px"
   height="40px"
   viewBox="0 0 24 40"
   version="1.1"
   id="svg10"
   sodipodi:docname="ic-nav-privacy-active.svg"
   inkscape:version="0.92.3 (2405546, 2018-03-11)">
  <metadata
     id="metadata16">
    <rdf:RDF>
      <cc:Work
         rdf:about="">
        <dc:format>image/svg+xml</dc:format>
        <dc:type
           rdf:resource="http://purl.org/dc/dcmitype/StillImage" />
      </cc:Work>
    </rdf:RDF>
  </metadata>
  <defs
     id="defs14" />
  <sodipodi:namedview
     pagecolor="#ffffff"
     bordercolor="#666666"
     borderopacity="1"
     objecttolerance="10"
     gridtolerance="10"
     guidetolerance="10"
     inkscape:pageopacity="0"
     inkscape:pageshadow="2"
     inkscape:window-width="1853"
     inkscape:window-height="1145"
     id="namedview12"
     showgrid="false"
     inkscape:zoom="5.9"
     inkscape:cx="-10.457627"
     inkscape:cy="20"
     inkscape:window-x="67"
     inkscape:window-y="27"
     inkscape:window-maximized="1"
     inkscape:current-layer="svg10" />
  <!-- Generator: Sketch 52.6 (67491) - http://www.bohemiancoding.com/sketch -->
  <title
     id="title2">Privacy Active</title>
  <desc
     id="desc4">Created with Sketch.</desc>
  <g
     id="Privacy-Active"
     stroke="none"
     stroke-width="1"
     fill="none"
     fill-rule="evenodd">
    <g
       id="Group"
       transform="translate(1.000000, 13.000000)"
       fill="#B088FF"
       fill-rule="nonzero">
      <path
         d="M20.025,10.116 L17.771,0.009 L11,1.156 L4.229,0 L1.975,10.116 L0,10.116 L0,12.116 L22,12.116 L22,10.116 L20.025,10.116 Z M5.771,2.294 L11,3.183 L16.229,2.283 L17.976,10.116 L4.024,10.116 L5.771,2.294 Z"
         id="Path_18869" />
      <path
         d="M12,16.116 L10,16.116 L10,14.116 L1,14.116 L1,17.854 C1.08087292,20.2726593 3.08016383,22.1830929 5.5,22.154 C7.77023475,22.0683766 9.65187105,20.366305 9.964,18.116 L12.036,18.116 C12.3490129,20.3655153 14.2304203,22.0665369 16.5,22.152 C18.9198362,22.1810929 20.9191271,20.2706593 21,17.852 L21,14.116 L12,14.116 L12,16.116 Z M8,17.854 C7.90893564,19.1676128 6.81676551,20.186691 5.5,20.186691 C4.18323449,20.186691 3.09106436,19.1676128 3,17.854 L3,16.116 L8,16.116 L8,17.854 Z M14,16.116 L19,16.116 L19,17.854 C18.9089356,19.1676128 17.8167655,20.186691 16.5,20.186691 C15.1832345,20.186691 14.0910644,19.1676128 14,17.854 L14,16.116 Z"
         id="Path_18870" />
    </g>
  </g>
  <path
     style="fill:#00c8fc;fill-opacity:0.31372549;stroke-width:0.16949153"
     d="m 1.0677966,24.050847 v -0.932203 h 0.9816995 0.9816993 l 1.0805648,-4.872881 c 0.5943105,-2.680085 1.135491,-4.936759 1.2026234,-5.014832 0.067132,-0.07807 1.5988593,0.109006 3.4038376,0.41573 L 12,14.20434 15.291116,13.655998 c 1.810114,-0.301588 3.341915,-0.488666 3.404003,-0.415729 0.06209,0.07294 0.59763,2.325409 1.190096,5.005494 l 1.077212,4.872881 h 0.984888 0.984888 v 0.932203 0.932204 H 12 1.0677966 Z M 18.949776,22.737288 c -0.04982,-0.209746 -0.437034,-1.942965 -0.860476,-3.851597 -0.423443,-1.908633 -0.807735,-3.508081 -0.853983,-3.554328 -0.04625,-0.04625 -1.240174,0.11392 -2.65317,0.355929 l -2.569085,0.440015 -2.5800576,-0.442104 c -1.4190317,-0.243158 -2.6188366,-0.403326 -2.666233,-0.355929 -0.047396,0.0474 -0.4326282,1.647784 -0.8560707,3.556417 -0.4234426,1.908632 -0.810657,3.641851 -0.8604765,3.851597 l -0.090581,0.381356 H 12 19.040356 Z"
     id="path823"
     inkscape:connector-curvature="0" />
  <path
     style="fill:#00c8fc;fill-opacity:0.31372549;stroke-width:0.16949153"
     d="M 5.2721702,34.921912 C 4.8345756,34.800561 4.3388129,34.596878 4.1704753,34.469283 3.2957168,33.806241 2.851437,33.292728 2.4886934,32.525424 2.1306614,31.768086 2.0878812,31.439149 2.0864015,29.432203 l -0.00166,-2.245762 h 4.4067796 4.4067799 v 1.016949 1.016949 H 12 13.101695 V 28.20339 27.186441 h 4.40678 4.406779 l -0.0017,2.245762 c -0.0015,1.994578 -0.04586,2.340688 -0.396871,3.094454 -0.437412,0.939306 -1.373612,1.853691 -2.30101,2.247394 -0.836839,0.355259 -2.311277,0.349128 -3.259355,-0.01355 C 14.927933,34.3671 13.735266,33.092754 13.3315,31.955925 L 13.022129,31.084746 H 12 10.977871 l -0.307548,0.86592 c -0.7964179,2.242367 -3.2187023,3.575638 -5.3981528,2.971246 z m 2.5606137,-2.103049 c 0.8808349,-0.652199 1.2011144,-1.347265 1.2011144,-2.60664 V 29.050847 H 6.4915254 3.9491525 v 1.110112 c 0,1.503288 0.5548426,2.467448 1.6950022,2.945434 0.5832982,0.244535 1.6613139,0.102911 2.1886292,-0.28753 z m 11.0169481,0 c 0.880836,-0.652199 1.201115,-1.347265 1.201115,-2.60664 v -1.161376 h -2.542372 -2.542373 v 1.120991 c 0,0.836811 0.0934,1.287171 0.368425,1.776516 0.703862,1.252353 2.424145,1.678365 3.515205,0.870509 z"
     id="path825"
     inkscape:connector-curvature="0" />
</svg>
