<?xml version="1.0" encoding="UTF-8" standalone="no"?>
<svg
   xmlns:dc="http://purl.org/dc/elements/1.1/"
   xmlns:cc="http://creativecommons.org/ns#"
   xmlns:rdf="http://www.w3.org/1999/02/22-rdf-syntax-ns#"
   xmlns:svg="http://www.w3.org/2000/svg"
   xmlns="http://www.w3.org/2000/svg"
   xmlns:sodipodi="http://sodipodi.sourceforge.net/DTD/sodipodi-0.dtd"
   xmlns:inkscape="http://www.inkscape.org/namespaces/inkscape"
   width="24px"
   height="40px"
   viewBox="0 0 24 40"
   version="1.1"
   id="svg14"
   sodipodi:docname="ic-nav-dashboard-hover.svg"
   inkscape:version="0.92.3 (2405546, 2018-03-11)">
  <metadata
     id="metadata20">
    <rdf:RDF>
      <cc:Work
         rdf:about="">
        <dc:format>image/svg+xml</dc:format>
        <dc:type
           rdf:resource="http://purl.org/dc/dcmitype/StillImage" />
      </cc:Work>
    </rdf:RDF>
  </metadata>
  <defs
     id="defs18" />
  <sodipodi:namedview
     pagecolor="#ffffff"
     bordercolor="#666666"
     borderopacity="1"
     objecttolerance="10"
     gridtolerance="10"
     guidetolerance="10"
     inkscape:pageopacity="0"
     inkscape:pageshadow="2"
     inkscape:window-width="1853"
     inkscape:window-height="1145"
     id="namedview16"
     showgrid="false"
     inkscape:zoom="5.9"
     inkscape:cx="12"
     inkscape:cy="20"
     inkscape:window-x="67"
     inkscape:window-y="27"
     inkscape:window-maximized="1"
     inkscape:current-layer="svg14" />
  <!-- Generator: Sketch 52.6 (67491) - http://www.bohemiancoding.com/sketch -->
  <title
     id="title2">Dashboard</title>
  <desc
     id="desc4">Created with Sketch.</desc>
  <g
     id="Dashboard"
     stroke="none"
     stroke-width="1"
     fill="none"
     fill-rule="evenodd">
    <g
       id="Group"
       transform="translate(1.000000, 11.000000)"
       fill="#B088FF"
       fill-rule="nonzero">
      <g
         id="Group_8812">
        <path
           d="M10,8 L0,8 L0,0 L10,0 L10,8 Z M2,6 L8,6 L8,2 L2,2 L2,6 Z"
           id="Path_18866" />
      </g>
      <g
         id="Group_8813"
         transform="translate(12.000000, 0.000000)">
        <path
           d="M10,22 L0,22 L0,0 L10,0 L10,22 Z M2,20 L8,20 L8,2 L2,2 L2,20 Z"
           id="Path_18867" />
      </g>
      <g
         id="Group_8814"
         transform="translate(0.000000, 10.000000)">
        <path
           d="M10,12 L0,12 L0,0 L10,0 L10,12 Z M2,10 L8,10 L8,2 L2,2 L2,10 Z"
           id="Path_18868" />
      </g>
    </g>
  </g>
  <path
     style="fill:#00c8fc;fill-opacity:0.31372549;stroke-width:0.16949153"
     d="M 13.016949,22.016949 V 11.084746 h 5 5 v 10.932203 10.932204 h -5 -5 z m 7.966102,0 v -9.067796 h -3.050848 -3.050847 v 9.067796 9.067797 h 3.050847 3.050848 z"
     id="path829"
     inkscape:connector-curvature="0" />
  <path
     style="fill:#00c8fc;fill-opacity:0.31372549;stroke-width:0.16949153"
     d="M 0.98305085,14.983051 V 11.084746 H 5.9830508 10.983051 v 3.898305 3.898305 H 5.9830508 0.98305085 Z m 8.13559325,0 V 12.949153 H 6.0677966 3.0169492 v 2.033898 2.033898 h 3.0508474 3.0508475 z"
     id="path831"
     inkscape:connector-curvature="0" />
  <path
     style="fill:#00c8fc;fill-opacity:0.31372549;stroke-width:0.16949153"
     d="M 0.98305085,27.016949 V 21.084746 H 5.9830508 10.983051 v 5.932203 5.932204 H 5.9830508 0.98305085 Z m 8.13559325,0 V 22.949153 H 6.0677966 3.0169492 v 4.067796 4.067797 h 3.0508474 3.0508475 z"
     id="path833"
     inkscape:connector-curvature="0" />
</svg>
