<?xml version="1.0" encoding="UTF-8" standalone="no"?>
<svg
   xmlns:dc="http://purl.org/dc/elements/1.1/"
   xmlns:cc="http://creativecommons.org/ns#"
   xmlns:rdf="http://www.w3.org/1999/02/22-rdf-syntax-ns#"
   xmlns:svg="http://www.w3.org/2000/svg"
   xmlns="http://www.w3.org/2000/svg"
   xmlns:sodipodi="http://sodipodi.sourceforge.net/DTD/sodipodi-0.dtd"
   xmlns:inkscape="http://www.inkscape.org/namespaces/inkscape"
   width="24px"
   height="40px"
   viewBox="0 0 24 40"
   version="1.1"
   id="svg13"
   sodipodi:docname="ic-nav-settings-hover.svg"
   inkscape:version="0.92.3 (2405546, 2018-03-11)">
  <metadata
     id="metadata19">
    <rdf:RDF>
      <cc:Work
         rdf:about="">
        <dc:format>image/svg+xml</dc:format>
        <dc:type
           rdf:resource="http://purl.org/dc/dcmitype/StillImage" />
      </cc:Work>
    </rdf:RDF>
  </metadata>
  <defs
     id="defs17" />
  <sodipodi:namedview
     pagecolor="#ffffff"
     bordercolor="#666666"
     borderopacity="1"
     objecttolerance="10"
     gridtolerance="10"
     guidetolerance="10"
     inkscape:pageopacity="0"
     inkscape:pageshadow="2"
     inkscape:window-width="1853"
     inkscape:window-height="1145"
     id="namedview15"
     showgrid="false"
     inkscape:zoom="5.9"
     inkscape:cx="12"
     inkscape:cy="20"
     inkscape:window-x="67"
     inkscape:window-y="27"
     inkscape:window-maximized="1"
     inkscape:current-layer="svg13" />
  <!-- Generator: Sketch 52.6 (67491) - http://www.bohemiancoding.com/sketch -->
  <title
     id="title2">Artboard</title>
  <desc
     id="desc4">Created with Sketch.</desc>
  <g
     id="Artboard"
     stroke="none"
     stroke-width="1"
     fill="none"
     fill-rule="evenodd">
    <g
       id="ic_settings-active"
       transform="translate(1.000000, 13.000000)"
       fill="#B088FF"
       fill-rule="nonzero">
      <g
         id="Group_8818">
        <g
           id="Group_8816">
          <path
             d="M13.9,22 L8.1,22 L7.787,18.864 L7.72,18.837 L5.281,20.837 L1.167,16.725 L3.167,14.285 L3.139,14.219 L0,13.9 L0,8.1 L3.135,7.786 L3.163,7.72 L1.163,5.28 L5.276,1.168 L7.715,3.168 L7.782,3.141 L8.1,0 L13.9,0 L14.213,3.136 L14.28,3.163 L16.719,1.163 L20.828,5.27 L18.828,7.71 L18.856,7.776 L22,8.1 L22,13.9 L18.865,14.214 L18.837,14.28 L20.837,16.72 L16.728,20.827 L14.289,18.827 L14.222,18.854 L13.9,22 Z M9.9,20 L12.1,20 L12.361,17.39 L12.987,17.19 C13.3287124,17.08012 13.660554,16.9416296 13.979,16.776 L14.562,16.476 L16.595,18.14 L18.143,16.591 L16.479,14.556 L16.779,13.972 C16.9446037,13.6542337 17.0830952,13.3230586 17.193,12.982 L17.393,12.357 L20,12.1 L20,9.9 L17.39,9.639 L17.19,9.014 C17.0800952,8.67294144 16.9416037,8.3417663 16.776,8.024 L16.476,7.44 L18.138,5.41 L16.59,3.861 L14.557,5.525 L13.974,5.225 C13.655552,5.05937466 13.3237108,4.92088448 12.982,4.811 L12.356,4.611 L12.1,2 L9.9,2 L9.639,4.61 L9.013,4.81 C8.67128919,4.91988448 8.33944799,5.05837466 8.021,5.224 L7.438,5.524 L5.41,3.861 L3.862,5.41 L5.526,7.445 L5.226,8.029 C5.06039627,8.3467663 4.92190485,8.67794144 4.812,9.019 L4.612,9.644 L2,9.9 L2,12.1 L4.61,12.361 L4.81,12.986 C4.91990485,13.3270586 5.05839627,13.6582337 5.224,13.976 L5.524,14.56 L3.862,16.59 L5.41,18.139 L7.443,16.475 L8.026,16.775 C8.34444598,16.9406296 8.67628755,17.07912 9.018,17.189 L9.644,17.389 L9.9,20 Z"
             id="Path_18871" />
        </g>
        <g
           id="Group_8817"
           transform="translate(7.000000, 7.000000)">
          <path
             d="M4,8 C1.790861,8 0,6.209139 0,4 C0,1.790861 1.790861,0 4,0 C6.209139,0 8,1.790861 8,4 C8,5.06086596 7.57857264,6.07828161 6.82842712,6.82842712 C6.07828161,7.57857264 5.06086596,8 4,8 Z M4,2 C2.8954305,2 2,2.8954305 2,4 C2,5.1045695 2.8954305,6 4,6 C5.1045695,6 6,5.1045695 6,4 C6,2.8954305 5.1045695,2 4,2 Z"
             id="Path_18872" />
        </g>
      </g>
    </g>
  </g>
  <path
     style="fill:#00c8fc;fill-opacity:0.31372549;stroke-width:0.16949153"
     d="M 9.9659666,27.313559 C 9.2583491,26.888648 8.940379,26.554852 8.5751593,25.853527 c -2.0133192,-3.86614 2.6842267,-7.62432 5.9915207,-4.7934 0.89266,0.764084 1.32418,1.711075 1.32418,2.905975 0,2.271902 -1.641285,3.898305 -3.933978,3.898305 -0.910043,0 -1.213305,-0.08391 -1.9909154,-0.550848 z m 3.0565304,-1.570665 c 0.609919,-0.315402 1.011401,-1.051998 1.011401,-1.85561 0,-0.451555 -0.146528,-0.764017 -0.580196,-1.237231 C 12.927491,22.075858 12.792227,22.016949 12,22.016949 c -0.792227,0 -0.927491,0.05891 -1.453702,0.633104 -0.6553429,0.715104 -0.7625382,1.488747 -0.323828,2.337118 0.482165,0.932406 1.780648,1.282864 2.800027,0.755723 z"
     id="path826"
     inkscape:connector-curvature="0" />
  <path
     style="fill:#00c8fc;fill-opacity:0.31372549;stroke-width:0.16949153"
     d="M 9.0385832,33.669492 C 8.8676031,31.608683 8.8807012,31.616358 7.5084746,32.773005 L 6.3220339,33.773054 4.3305085,31.795956 c -1.095339,-1.087403 -1.9915254,-2.025795 -1.9915254,-2.085314 0,-0.05952 0.4269769,-0.629122 0.9488377,-1.265783 C 4.3400795,27.161121 4.3134802,27.055068 2.9322034,27.026997 2.559322,27.019419 1.9682203,26.965943 1.6186441,26.908161 L 0.98305085,26.803104 V 23.964081 21.125057 L 2.5932203,21.004338 c 0.8855933,-0.06639 1.6101695,-0.16237 1.6101695,-0.213276 0,-0.05091 -0.4194915,-0.611754 -0.9322034,-1.246327 -0.5127118,-0.634574 -0.9322033,-1.216287 -0.9322033,-1.292695 0,-0.07641 0.8688705,-1.005331 1.9308233,-2.064271 1.3644341,-1.360564 1.9983485,-1.88455 2.161017,-1.786273 0.1266064,0.07649 0.6809515,0.512437 1.2318781,0.968771 1.1698597,0.968998 1.1937095,0.952614 1.3655071,-0.938064 l 0.1193575,-1.313559 h 2.8432859 2.843287 l 0.106881,0.889831 c 0.05878,0.489406 0.107544,1.13321 0.108354,1.430675 8.14e-4,0.297464 0.07237,0.58466 0.159018,0.638212 0.08665,0.05355 0.60148,-0.270318 1.144068,-0.719712 0.542588,-0.449395 1.09011,-0.879664 1.216717,-0.956154 0.162669,-0.09828 0.796582,0.425709 2.161016,1.786273 1.061953,1.05894 1.930824,1.990752 1.930824,2.070694 0,0.07994 -0.416197,0.646766 -0.924881,1.259609 -0.508687,0.612844 -0.890572,1.16978 -0.848634,1.237635 0.04194,0.06786 0.763218,0.177746 1.602849,0.2442 l 1.526598,0.120826 v 2.849872 2.849872 l -1.144068,0.113687 c -0.629237,0.06253 -1.36021,0.165503 -1.624384,0.228833 l -0.480319,0.115145 0.94642,1.154616 c 0.520531,0.635039 0.946419,1.206752 0.946419,1.270474 0,0.16626 -3.791056,3.923887 -3.958795,3.923887 -0.07696,0 -0.64771,-0.421477 -1.268327,-0.936614 -1.309848,-1.087229 -1.300536,-1.09342 -1.472478,0.978987 l -0.108983,1.313559 H 12 9.1475661 Z m 4.2406778,-1.881984 0.116116,-1.331133 1.109037,-0.435792 1.109037,-0.435792 0.920676,0.749977 c 0.506372,0.412488 0.974075,0.749978 1.039341,0.749978 0.06527,0 0.450047,-0.337654 0.855069,-0.750341 l 0.736404,-0.750341 -0.319758,-0.41471 c -0.175868,-0.228091 -0.525642,-0.674352 -0.777278,-0.991692 l -0.457517,-0.576982 0.447692,-1.139323 0.447693,-1.139323 h 0.708978 c 0.389937,0 0.947325,-0.04767 1.238639,-0.105932 l 0.529661,-0.105933 v -1.145341 -1.145341 l -1.238434,-0.11605 -1.238432,-0.116051 -0.471785,-1.08295 -0.471784,-1.08295 0.778015,-0.955093 c 0.427906,-0.525302 0.778013,-1.008493 0.778013,-1.073759 0,-0.06527 -0.337097,-0.449501 -0.749105,-0.853857 l -0.749105,-0.735191 -1.019825,0.801219 -1.019824,0.80122 -1.070053,-0.42885 -1.070054,-0.42885 -0.14733,-1.282637 -0.147331,-1.282637 H 12 10.853983 l -0.147331,1.282637 -0.14733,1.282637 -1.0660689,0.427249 -1.066069,0.427249 L 7.819321,17.92175 C 7.4849964,17.657161 7.0248385,17.296787 6.796748,17.120919 l -0.4147102,-0.319758 -0.750341,0.736404 c -0.4126875,0.405022 -0.7503409,0.789803 -0.7503409,0.855069 0,0.06527 0.348299,0.546238 0.7739977,1.068828 l 0.7739976,0.950164 -0.4242839,1.056899 c -0.3957754,0.985884 -0.4677115,1.064784 -1.0706078,1.17425 -0.3554781,0.06454 -0.9323409,0.121746 -1.2819171,0.127118 l -0.6355932,0.0098 v 1.164264 1.164264 l 0.6355932,0.105057 c 0.3495762,0.05778 0.8741356,0.105897 1.1656873,0.106922 0.6201337,0.0022 0.7281608,0.120785 1.2209457,1.340469 l 0.3696338,0.914875 -0.4671165,0.589566 c -0.2569141,0.324261 -0.6110078,0.776185 -0.7868749,1.004276 l -0.3197585,0.41471 0.7364039,0.750341 c 0.4050222,0.412687 0.803698,0.750341 0.8859463,0.750341 0.082248,0 0.546271,-0.338936 1.0311619,-0.753192 l 0.8816196,-0.753191 1.1172158,0.439006 1.1172162,0.439006 0.116116,1.331133 0.116117,1.331136 H 12 13.163144 Z"
     id="path828"
     inkscape:connector-curvature="0" />
</svg>
