<?xml version="1.0" encoding="UTF-8" standalone="no"?>
<svg
   xmlns:dc="http://purl.org/dc/elements/1.1/"
   xmlns:cc="http://creativecommons.org/ns#"
   xmlns:rdf="http://www.w3.org/1999/02/22-rdf-syntax-ns#"
   xmlns:svg="http://www.w3.org/2000/svg"
   xmlns="http://www.w3.org/2000/svg"
   xmlns:sodipodi="http://sodipodi.sourceforge.net/DTD/sodipodi-0.dtd"
   xmlns:inkscape="http://www.inkscape.org/namespaces/inkscape"
   width="24px"
   height="40px"
   viewBox="0 0 24 40"
   version="1.1"
   id="svg13"
   sodipodi:docname="ic-nav-send-hover.svg"
   inkscape:version="0.92.3 (2405546, 2018-03-11)">
  <metadata
     id="metadata19">
    <rdf:RDF>
      <cc:Work
         rdf:about="">
        <dc:format>image/svg+xml</dc:format>
        <dc:type
           rdf:resource="http://purl.org/dc/dcmitype/StillImage" />
      </cc:Work>
    </rdf:RDF>
  </metadata>
  <defs
     id="defs17" />
  <sodipodi:namedview
     pagecolor="#ffffff"
     bordercolor="#666666"
     borderopacity="1"
     objecttolerance="10"
     gridtolerance="10"
     guidetolerance="10"
     inkscape:pageopacity="0"
     inkscape:pageshadow="2"
     inkscape:window-width="1853"
     inkscape:window-height="1145"
     id="namedview15"
     showgrid="false"
     inkscape:zoom="5.9"
     inkscape:cx="12"
     inkscape:cy="20"
     inkscape:window-x="67"
     inkscape:window-y="27"
     inkscape:window-maximized="1"
     inkscape:current-layer="svg13" />
  <!-- Generator: Sketch 52.6 (67491) - http://www.bohemiancoding.com/sketch -->
  <title
     id="title2">Send</title>
  <desc
     id="desc4">Created with Sketch.</desc>
  <g
     id="Send"
     stroke="none"
     stroke-width="1"
     fill="none"
     fill-rule="evenodd">
    <g
       id="ic-send"
       transform="translate(-1.000000, 11.000000)">
      <g
         id="Group_8811"
         transform="translate(1.000000, 1.000000)"
         fill="#B088FF">
        <polygon
           id="Path_18865"
           points="0.352 9.1 7.562 13.606 9.014 12.154 4.914 9.59 19.714 4.283 14.407 19.083 11.842 14.983 10.391 16.434 14.9 23.648 23.025 0.975" />
        <g
           id="Group_8810"
           transform="translate(8.000000, 8.000000)">
          <polygon
             id="Rectangle_4394"
             transform="translate(3.823718, 4.176339) rotate(-45.000000) translate(-3.823718, -4.176339) "
             points="-0.176282346 3.17633883 7.82371765 3.17633883 7.82371765 5.17633883 -0.176282346 5.17633883" />
        </g>
      </g>
      <polygon
         id="Rectangle_4395"
         points="0 0 26 0 26 26 0 26" />
    </g>
  </g>
  <path
     style="fill:#00c8fc;fill-opacity:0.31372549;stroke-width:0.16949153"
     d="m 8.9456074,26.928546 -0.578517,-0.596878 2.7888216,-2.79267 2.788822,-2.792669 0.677936,0.677936 0.677936,0.677936 -2.707638,2.711611 c -1.489201,1.491387 -2.7889097,2.711612 -2.8882412,2.711612 -0.099331,0 -0.4409351,-0.268595 -0.7591194,-0.596878 z"
     id="path826"
     inkscape:connector-curvature="0" />
  <path
     style="fill:#00c8fc;fill-opacity:0.31372549;stroke-width:0.16949153"
     d="m 12.612484,31.896232 -2.136455,-3.4258 0.626892,-0.641996 c 0.34479,-0.353097 0.669658,-0.641995 0.721928,-0.641995 0.05227,0 0.616816,0.83942 1.254546,1.865379 0.637731,1.025958 1.21252,1.898139 1.277309,1.938182 0.06479,0.04004 1.30122,-3.220989 2.747624,-7.246735 1.446404,-4.025746 2.56783,-7.344887 2.492058,-7.37587 -0.122606,-0.05013 -14.2399358,4.952205 -14.5948077,5.171528 -0.078856,0.04874 0.7821097,0.663634 1.9132561,1.366441 l 2.0566297,1.277831 -0.6422787,0.657754 C 7.9561981,25.222924 7.5860864,25.460015 7.4464432,25.406429 6.758079,25.142279 0.64665017,21.185462 0.76247203,21.078922 0.94374015,20.912181 22.734383,13.118564 22.809446,13.193626 c 0.09031,0.09031 -7.828647,22.125727 -7.951926,22.127152 -0.05972,6.78e-4 -1.069986,-1.540354 -2.245036,-3.424546 z"
     id="path828"
     inkscape:connector-curvature="0" />
</svg>
