<?xml version="1.0" encoding="UTF-8" standalone="no"?>
<!-- Generator: Adobe Illustrator 23.1.1, SVG Export Plug-In . SVG Version: 6.00 Build 0)  -->

<svg
   xmlns:dc="http://purl.org/dc/elements/1.1/"
   xmlns:cc="http://creativecommons.org/ns#"
   xmlns:rdf="http://www.w3.org/1999/02/22-rdf-syntax-ns#"
   xmlns:svg="http://www.w3.org/2000/svg"
   xmlns="http://www.w3.org/2000/svg"
   xmlns:sodipodi="http://sodipodi.sourceforge.net/DTD/sodipodi-0.dtd"
   xmlns:inkscape="http://www.inkscape.org/namespaces/inkscape"
   version="1.1"
   id="Layer_1"
   x="0px"
   y="0px"
   width="24px"
   height="31px"
   viewBox="0 0 24 30"
   style="enable-background:new 0 0 24 30;"
   xml:space="preserve"
   sodipodi:docname="ic-nav-cold-staking-active.svg"
   inkscape:version="0.92.3 (2405546, 2018-03-11)"><metadata
   id="metadata15"><rdf:RDF><cc:Work
       rdf:about=""><dc:format>image/svg+xml</dc:format><dc:type
         rdf:resource="http://purl.org/dc/dcmitype/StillImage" /></cc:Work></rdf:RDF></metadata><defs
   id="defs13" /><sodipodi:namedview
   pagecolor="#ffffff"
   bordercolor="#666666"
   borderopacity="1"
   objecttolerance="10"
   gridtolerance="10"
   guidetolerance="10"
   inkscape:pageopacity="0"
   inkscape:pageshadow="2"
   inkscape:window-width="1853"
   inkscape:window-height="1145"
   id="namedview11"
   showgrid="false"
   inkscape:zoom="7.6129032"
   inkscape:cx="12"
   inkscape:cy="15.5"
   inkscape:window-x="67"
   inkscape:window-y="27"
   inkscape:window-maximized="1"
   inkscape:current-layer="Layer_1" />
<style
   type="text/css"
   id="style2">
	.st0{fill:#B088FF;}
</style>
	<title
   id="title4">Cold Staking</title>
	<desc
   id="desc6">Created with Sketch.</desc>
	<path
   class="st0"
   d="M21.7,22.1l-3-1.6l2.7-0.5c0.5,0,0.8-0.5,0.5-1.1c0-0.5-0.5-0.8-1.1-0.5l-4.3,1.1l-3-1.6l3-1.6l4.3,1.1h0.3  c0.3,0,0.8-0.3,0.8-0.5c0-0.5-0.3-0.8-0.5-1.1l-2.7-0.5l3-1.6c0.5-0.3,0.5-0.8,0.3-1.1c-0.3-0.3-0.8-0.5-1.1-0.3l-3,1.6l0.8-2.4  c0-0.5-0.3-0.8-0.5-1.1c-0.5,0-1.1,0.3-1.1,0.5L16,14.8l-3,1.6v-3.3l3.3-3c0.3-0.3,0.3-0.8,0-1.1c-0.3-0.3-0.8-0.3-1.4,0L13.1,11  V7.8c0-0.5-0.3-0.8-0.8-0.8c-0.5,0-0.8,0.3-0.8,0.8V11L9.3,8.9C9,8.6,8.5,8.6,7.9,8.9c-0.3,0.3-0.3,0.8,0,1.1l3.3,3v3.3l-3-1.6  l-1.1-4.1c0-0.5-0.5-0.8-1.1-0.5c-0.5,0-0.8,0.5-0.5,1.1l0.8,2.4l-3-1.6c-0.5-0.3-1.1,0-1.1,0.3c-0.3,0.3,0,0.8,0.3,1.1l3,1.6  l-2.7,0.5c-0.5,0-0.8,0.5-0.5,1.1C2.2,16.7,2.8,17,3,17h0.3l4.3-1.1l3,1.6l-3,1.6l-4.3-1.1c-0.5,0-1.1,0.3-1.1,0.5  c0,0.5,0.3,0.8,0.5,1.1l2.7,0.5l-3,1.6c-0.5,0.3-0.5,0.8-0.3,1.1c0.3,0.3,0.5,0.5,0.8,0.5s0.3,0,0.5,0l2.7-1.6l-0.8,2.7  c0,0.5,0.3,0.8,0.5,1.1h0.3c0.3,0,0.8-0.3,0.8-0.5l1.1-4.1l3-1.6v3.3l-3.3,3c-0.3,0.3-0.3,0.8,0,1.1s0.8,0.3,1.4,0l1.9-1.9v3.3  c0,0.5,0.3,0.8,0.8,0.8c0.5,0,0.8-0.3,0.8-0.8v-3.3l1.9,1.9C15,27,15,27,15.2,27c0.3,0,0.5,0,0.5-0.3c0.3-0.3,0.3-0.8,0-1.1l-3.3-3  v-3.5l3,1.6l1.1,4.1c0,0.3,0.5,0.5,0.8,0.5h0.3c0.5,0,0.8-0.5,0.5-1.1v-2.4l3,1.6c0.3,0,0.3,0,0.5,0c0.3,0,0.5-0.3,0.8-0.5  C22.6,23,22.3,22.4,21.7,22.1z"
   id="path8" />
<path
   style="fill:#00c8fc;fill-opacity:0.31372549;stroke-width:0.13135593"
   d="M 11.310381,29.203038 C 11.10798,29.08515 11.080508,28.838779 11.080508,27.141464 v -1.927685 l -0.95233,0.934364 C 9.6043962,26.662043 9.0467356,27.148222 8.8889321,27.228541 8.464115,27.444766 7.9972239,27.406114 7.7512908,27.13436 7.3072355,26.643684 7.4695665,26.391116 9.3036997,24.718988 l 1.7698013,-1.61348 0.0035,-1.685734 c 0.0019,-0.927154 -0.04203,-1.666031 -0.09768,-1.641949 -0.05565,0.02408 -0.756591,0.391564 -1.5576395,0.816628 l -1.4564509,0.772842 -0.5547055,2.051311 c -0.3050879,1.12822 -0.6477397,2.154752 -0.7614484,2.281182 -0.1137086,0.12643 -0.3639641,0.229873 -0.5561234,0.229873 -0.2690657,0 -0.3991087,-0.104281 -0.5657047,-0.453636 -0.2089355,-0.438143 -0.2027128,-0.499135 0.1821915,-1.785712 0.2191836,-0.73264 0.3687228,-1.361868 0.3323093,-1.398281 -0.036413,-0.03641 -0.6284984,0.26472 -1.3157443,0.669186 -1.4400226,0.847498 -1.952806,0.93235 -2.448134,0.405098 -0.5491524,-0.584547 -0.2953947,-0.891145 1.5552096,-1.879056 1.8033816,-0.962703 1.8021846,-0.930649 0.045278,-1.212473 -0.89266,-0.143191 -1.1417019,-0.23602 -1.3526473,-0.504194 -0.385333,-0.489871 -0.2782712,-0.963559 0.2519468,-1.114721 0.349738,-0.09971 0.8532175,-0.01667 2.6357661,0.434697 L 7.6168711,19.648517 9.0494418,18.88125 C 9.8373557,18.459253 10.474324,18.059474 10.464927,17.992852 10.45553,17.92623 9.8052056,17.529112 9.0197618,17.110367 L 7.591682,16.349014 5.563816,16.87027 c -1.1153263,0.28669 -2.2105681,0.521255 -2.4338706,0.521255 -0.6113819,0 -0.8788968,-0.256575 -0.8277847,-0.793933 L 2.345339,16.143644 3.6588983,15.904531 C 5.6619964,15.539899 5.6527051,15.550556 4.5096657,14.928657 3.9694978,14.634765 3.2480838,14.24189 2.9065233,14.055603 2.0349223,13.580231 1.8989047,12.901073 2.5898606,12.474457 c 0.1814794,-0.112051 0.5573011,0.03097 1.8753032,0.713679 0.9065863,0.469597 1.6979049,0.872174 1.7584856,0.894615 0.060581,0.02244 -0.1063091,-0.614384 -0.3708664,-1.415168 -0.5237217,-1.585243 -0.5079749,-1.79283 0.1527044,-2.013056 0.823391,-0.274464 0.8941761,-0.169248 1.5437727,2.29468 l 0.5974261,2.266045 1.4997502,0.808735 1.4997496,0.808734 0.03773,-1.658098 0.03773,-1.658098 -0.760193,-0.725151 C 10.043358,12.39254 9.2653337,11.67306 8.7325212,11.192529 7.6989016,10.260332 7.5035463,9.7866166 8.0023306,9.4218965 8.5660115,9.009723 8.9960147,9.1895879 10.254578,10.363983 c 0.6581,0.614089 1.231377,1.116525 1.27395,1.116525 0.04257,0 0.0774,-0.825462 0.0774,-1.8343609 0,-1.6791425 0.0215,-1.8458676 0.254077,-1.9703391 0.378816,-0.2027366 0.729634,-0.1651704 0.973446,0.1042384 0.179153,0.1979622 0.217987,0.5503194 0.22077,2.0031781 l 0.0034,1.7629615 1.022381,-1.083686 c 0.96182,-1.0194936 1.054718,-1.0836864 1.568272,-1.0836864 0.405269,0 0.580919,0.06545 0.681869,0.2540764 0.29169,0.545029 0.142766,0.760869 -1.637328,2.373042 l -1.773305,1.606024 v 1.627073 c 0,0.895822 0.05399,1.627073 0.120134,1.627073 0.13883,0 2.777684,-1.400361 2.934659,-1.557336 0.05765,-0.05765 0.342863,-0.957375 0.633798,-1.99938 0.290934,-1.042006 0.604,-1.970662 0.695702,-2.063681 0.0917,-0.09302 0.33454,-0.181684 0.53964,-0.197034 0.291877,-0.02184 0.425043,0.0598 0.612814,0.375718 0.237558,0.39968 0.235925,0.415484 -0.166946,1.616716 -0.223767,0.667199 -0.377881,1.242059 -0.342474,1.277465 0.03541,0.03541 0.765935,-0.303587 1.623397,-0.753321 1.693376,-0.888165 2.146411,-0.948629 2.430816,-0.324427 0.235193,0.516193 -0.0528,0.796344 -1.721138,1.674262 -0.897209,0.472131 -1.504545,0.864635 -1.412967,0.913158 0.08834,0.04681 0.687588,0.181159 1.331664,0.298561 0.644076,0.117402 1.180891,0.228329 1.192921,0.246505 0.01203,0.01818 0.120493,0.179198 0.241027,0.357826 0.337749,0.500529 0.274448,0.78205 -0.222538,0.989704 -0.410956,0.171708 -0.595762,0.144702 -2.655604,-0.388077 l -2.21391,-0.572628 -0.858168,0.436294 c -0.471991,0.239961 -1.173708,0.610773 -1.559371,0.824026 l -0.701204,0.387734 1.540391,0.820259 1.540392,0.820259 2.476056,-0.635773 c 2.75404,-0.707151 2.770537,-0.705916 2.939247,0.220068 0.06035,0.331243 0.02991,0.51414 -0.104089,0.625347 -0.104161,0.08645 -0.827504,0.274415 -1.607426,0.417707 -0.779923,0.143292 -1.442375,0.284865 -1.472118,0.314607 -0.02974,0.02974 0.679222,0.443088 1.575475,0.918548 0.896254,0.47546 1.741333,0.98799 1.877957,1.138957 0.244792,0.270494 0.243678,0.278116 -0.0766,0.524222 -0.519489,0.399175 -0.953781,0.306169 -2.571071,-0.550614 l -1.521794,-0.806191 0.04491,1.664819 c 0.03693,1.369015 0.0099,1.688151 -0.152089,1.796124 -0.216376,0.144223 -1.026476,0.0673 -1.208531,-0.114756 -0.06309,-0.06309 -0.373165,-1.074606 -0.689046,-2.247804 -0.315882,-1.173197 -0.594467,-2.148603 -0.619078,-2.167568 -0.13769,-0.106102 -2.855269,-1.521822 -2.92125,-1.521822 -0.04345,0 -0.07901,0.793536 -0.07901,1.763413 v 1.763413 l 1.701771,1.540093 c 0.935974,0.84705 1.722753,1.634711 1.748395,1.750358 0.07682,0.346441 -0.171102,0.916553 -0.434997,1.000311 -0.371601,0.117942 -0.747325,-0.129442 -1.865805,-1.228483 l -1.018008,-1.000314 v 1.859357 c 0,1.515184 -0.03821,1.897567 -0.206417,2.065775 -0.234369,0.234369 -0.669267,0.262197 -1.008626,0.06454 z"
   id="path825"
   inkscape:connector-curvature="0"
   transform="translate(0,-0.5)" /></svg>