<?xml version="1.0" encoding="UTF-8" standalone="no"?>
<svg
   xmlns:dc="http://purl.org/dc/elements/1.1/"
   xmlns:cc="http://creativecommons.org/ns#"
   xmlns:rdf="http://www.w3.org/1999/02/22-rdf-syntax-ns#"
   xmlns:svg="http://www.w3.org/2000/svg"
   xmlns="http://www.w3.org/2000/svg"
   xmlns:sodipodi="http://sodipodi.sourceforge.net/DTD/sodipodi-0.dtd"
   xmlns:inkscape="http://www.inkscape.org/namespaces/inkscape"
   width="24px"
   height="40px"
   viewBox="0 0 24 40"
   version="1.1"
   id="svg10"
   sodipodi:docname="ic-nav-address-hover.svg"
   inkscape:version="0.92.3 (2405546, 2018-03-11)">
  <metadata
     id="metadata16">
    <rdf:RDF>
      <cc:Work
         rdf:about="">
        <dc:format>image/svg+xml</dc:format>
        <dc:type
           rdf:resource="http://purl.org/dc/dcmitype/StillImage" />
      </cc:Work>
    </rdf:RDF>
  </metadata>
  <defs
     id="defs14" />
  <sodipodi:namedview
     pagecolor="#ffffff"
     bordercolor="#666666"
     borderopacity="1"
     objecttolerance="10"
     gridtolerance="10"
     guidetolerance="10"
     inkscape:pageopacity="0"
     inkscape:pageshadow="2"
     inkscape:window-width="1853"
     inkscape:window-height="1145"
     id="namedview12"
     showgrid="false"
     inkscape:zoom="5.9"
     inkscape:cx="-10.457627"
     inkscape:cy="20"
     inkscape:window-x="67"
     inkscape:window-y="27"
     inkscape:window-maximized="1"
     inkscape:current-layer="svg10" />
  <!-- Generator: Sketch 52.6 (67491) - http://www.bohemiancoding.com/sketch -->
  <title
     id="title2">Address Active</title>
  <desc
     id="desc4">Created with Sketch.</desc>
  <g
     id="Address-Active"
     stroke="none"
     stroke-width="1"
     fill="none"
     fill-rule="evenodd">
    <g
       id="Group-2"
       transform="translate(3.000000, 12.000000)"
       fill="#B088FF"
       fill-rule="nonzero">
      <path
         d="M4,0 L0,0 L0,22 L18,22 L18,0 L4,0 Z M2,20 L2,2 L3,2 L3,20 L2,20 Z M16,20 L5,20 L5,2 L16,2 L16,20 Z"
         id="Path_18863" />
      <path
         d="M15,4 L6,4 L6,10 L15,10 L15,4 Z M13,8 L8,8 L8,6 L13,6 L13,8 Z"
         id="Path_18864" />
    </g>
  </g>
  <path
     style="fill:#00c8fc;fill-opacity:0.31372549;stroke-width:0.16949153"
     d="M 3.1016949,23.033898 V 12.101695 H 12 20.898305 V 23.033898 33.966102 H 12 3.1016949 Z m 2.8813559,0 V 13.966102 H 5.4745763 4.9661017 v 9.067796 9.067797 h 0.5084746 0.5084745 z m 13.0508472,0 V 13.966102 H 13.525424 8.0169492 v 9.067796 9.067797 h 5.5084748 5.508474 z"
     id="path823"
     inkscape:connector-curvature="0" />
  <path
     style="fill:#00c8fc;fill-opacity:0.31372549;stroke-width:0.16949153"
     d="M 9.0338983,18.966102 V 16 h 4.4915257 4.491525 v 2.966102 2.966101 H 13.525424 9.0338983 Z m 6.9491527,-0.0045 v -1.106226 l -2.5,0.0469 -2.5,0.0469 -0.05046,1.059322 -0.05046,1.059322 h 2.55046 2.550461 z"
     id="path825"
     inkscape:connector-curvature="0" />
</svg>
