<?xml version="1.0" encoding="UTF-8" standalone="no"?>
<svg
   xmlns:dc="http://purl.org/dc/elements/1.1/"
   xmlns:cc="http://creativecommons.org/ns#"
   xmlns:rdf="http://www.w3.org/1999/02/22-rdf-syntax-ns#"
   xmlns:svg="http://www.w3.org/2000/svg"
   xmlns="http://www.w3.org/2000/svg"
   xmlns:sodipodi="http://sodipodi.sourceforge.net/DTD/sodipodi-0.dtd"
   xmlns:inkscape="http://www.inkscape.org/namespaces/inkscape"
   width="40"
   height="26"
   viewBox="0 0 40 26"
   version="1.1"
   id="svg22"
   sodipodi:docname="ic-switch-liliac-on.svg"
   inkscape:version="0.92.3 (2405546, 2018-03-11)">
  <metadata
     id="metadata26">
    <rdf:RDF>
      <cc:Work
         rdf:about="">
        <dc:format>image/svg+xml</dc:format>
        <dc:type
           rdf:resource="http://purl.org/dc/dcmitype/StillImage" />
      </cc:Work>
    </rdf:RDF>
  </metadata>
  <sodipodi:namedview
     pagecolor="#ffffff"
     bordercolor="#666666"
     borderopacity="1"
     objecttolerance="10"
     gridtolerance="10"
     guidetolerance="10"
     inkscape:pageopacity="0"
     inkscape:pageshadow="2"
     inkscape:window-width="1853"
     inkscape:window-height="1145"
     id="namedview24"
     showgrid="false"
     inkscape:zoom="9.0769231"
     inkscape:cx="20"
     inkscape:cy="13"
     inkscape:window-x="67"
     inkscape:window-y="27"
     inkscape:window-maximized="1"
     inkscape:current-layer="svg22" />
  <defs
     id="defs15">
    <style
       type="text/css"
       id="style2">
            .cls-1,.cls-2{fill:#b088ff}.cls-1{fill-rule:evenodd;opacity:.5}.cls-3{filter:url(#switch_button)}
        </style>
    <filter
       id="switch_button"
       width="26"
       height="26"
       x="14"
       y="0"
       filterUnits="userSpaceOnUse">
      <feOffset
         dy="2"
         id="feOffset4" />
      <feGaussianBlur
         result="blur"
         stdDeviation="1"
         id="feGaussianBlur6" />
      <feFlood
         flood-opacity=".239"
         id="feFlood8" />
      <feComposite
         in2="blur"
         operator="in"
         id="feComposite10"
         result="result1" />
      <feComposite
         in="SourceGraphic"
         in2="result1"
         id="feComposite12" />
    </filter>
  </defs>
  <g
     id="switch_on"
     transform="translate(0 1)">
    <path
       id="switch_path"
       d="M37 10a6.957 6.957 0 0 1-7 7H10a6.957 6.957 0 0 1-7-7 6.957 6.957 0 0 1 7-7h20a6.957 6.957 0 0 1 7 7z"
       class="cls-1"
       transform="translate(-3 .223)" />
    <g
       class="cls-3"
       transform="translate(0 -1)"
       id="g19">
      <path
         id="switch_button-2"
         d="M10 0A10 10 0 1 1 0 10 10 10 0 0 1 10 0z"
         class="cls-2"
         data-name="switch_button"
         transform="translate(17 1)" />
    </g>
  </g>
  <path
     style="fill:#00c8fc;fill-opacity:0.31372549;stroke-width:0.11016949"
     d="M 25.327818,20.821216 C 23.258593,20.425695 21.362773,19.4432 19.911427,18.014212 16.623362,14.776803 16.0958,9.379261 18.688546,5.502784 19.261669,4.6458948 20.428557,3.445282 21.2806,2.8358175 c 0.781546,-0.5590385 2.183066,-1.201836 3.246053,-1.48878 1.243871,-0.3357721 3.497183,-0.35695512 4.72511,-0.04442 2.018356,0.5137173 3.286566,1.233877 4.750002,2.6973126 1.845183,1.8451837 2.762106,3.8528732 2.922948,6.4000699 0.174129,2.757623 -0.809494,5.440632 -2.726743,7.437682 -1.404848,1.463324 -2.846108,2.308576 -4.807857,2.819654 -1.103623,0.287517 -3.012578,0.364528 -4.062295,0.16388 z"
     id="path833"
     inkscape:connector-curvature="0" />
</svg>
