<?xml version="1.0" encoding="UTF-8" standalone="no"?>
<svg
   xmlns:dc="http://purl.org/dc/elements/1.1/"
   xmlns:cc="http://creativecommons.org/ns#"
   xmlns:rdf="http://www.w3.org/1999/02/22-rdf-syntax-ns#"
   xmlns:svg="http://www.w3.org/2000/svg"
   xmlns="http://www.w3.org/2000/svg"
   xmlns:sodipodi="http://sodipodi.sourceforge.net/DTD/sodipodi-0.dtd"
   xmlns:inkscape="http://www.inkscape.org/namespaces/inkscape"
   width="40"
   height="26"
   viewBox="0 0 40 26"
   version="1.1"
   id="svg22"
   sodipodi:docname="ic-switch-on.svg"
   inkscape:version="0.92.3 (2405546, 2018-03-11)">
  <metadata
     id="metadata26">
    <rdf:RDF>
      <cc:Work
         rdf:about="">
        <dc:format>image/svg+xml</dc:format>
        <dc:type
           rdf:resource="http://purl.org/dc/dcmitype/StillImage" />
      </cc:Work>
    </rdf:RDF>
  </metadata>
  <sodipodi:namedview
     pagecolor="#ffffff"
     bordercolor="#666666"
     borderopacity="1"
     objecttolerance="10"
     gridtolerance="10"
     guidetolerance="10"
     inkscape:pageopacity="0"
     inkscape:pageshadow="2"
     inkscape:window-width="1853"
     inkscape:window-height="1145"
     id="namedview24"
     showgrid="false"
     inkscape:zoom="9.0769231"
     inkscape:cx="2.1525424"
     inkscape:cy="13"
     inkscape:window-x="67"
     inkscape:window-y="27"
     inkscape:window-maximized="1"
     inkscape:current-layer="svg22" />
  <defs
     id="defs15">
    <style
       type="text/css"
       id="style2">
            .cls-1,.cls-2{fill:#5c4b7d}.cls-1{fill-rule:evenodd;opacity:.5}.cls-3{filter:url(#switch_button)}
        </style>
    <filter
       id="switch_button"
       width="26"
       height="26"
       x="14"
       y="0"
       filterUnits="userSpaceOnUse">
      <feOffset
         dy="2"
         id="feOffset4" />
      <feGaussianBlur
         result="blur"
         stdDeviation="1"
         id="feGaussianBlur6" />
      <feFlood
         flood-opacity=".239"
         id="feFlood8" />
      <feComposite
         in2="blur"
         operator="in"
         id="feComposite10"
         result="result1" />
      <feComposite
         in="SourceGraphic"
         in2="result1"
         id="feComposite12" />
    </filter>
  </defs>
  <g
     id="switch_on"
     transform="translate(0 1)">
    <path
       id="switch_path"
       d="M37 10a6.957 6.957 0 0 1-7 7H10a6.957 6.957 0 0 1-7-7 6.957 6.957 0 0 1 7-7h20a6.957 6.957 0 0 1 7 7z"
       class="cls-1"
       transform="translate(-3 .223)" />
    <g
       class="cls-3"
       transform="translate(0 -1)"
       id="g19">
      <path
         id="switch_button-2"
         d="M10 0A10 10 0 1 1 0 10 10 10 0 0 1 10 0z"
         class="cls-2"
         data-name="switch_button"
         transform="translate(17 1)" />
    </g>
  </g>
  <path
     style="fill:#0072d5;fill-opacity:0.3764706;stroke-width:0.11016949"
     d="m 25.70678,20.865554 c -3.330422,-0.449747 -6.182846,-2.52047 -7.663057,-5.563012 -0.678816,-1.395292 -0.959902,-2.649711 -0.96277,-4.29661 -0.0067,-3.8186451 2.083687,-7.2019264 5.485996,-8.8792638 1.318827,-0.6501814 2.497466,-0.9676007 3.911017,-1.0532763 1.847309,-0.11196568 3.984012,0.4202888 5.667396,1.4117524 1.033553,0.6087328 2.745531,2.3243236 3.359532,3.3666216 1.90812,3.2391351 1.908542,7.0625281 0.0011,10.3083321 -0.633104,1.077346 -2.310047,2.725824 -3.465724,3.406897 -1.870034,1.102066 -4.220282,1.583937 -6.333525,1.298559 z"
     id="path28"
     inkscape:connector-curvature="0" />
</svg>
