<?xml version="1.0" encoding="UTF-8" standalone="no"?>
<svg
   xmlns:dc="http://purl.org/dc/elements/1.1/"
   xmlns:cc="http://creativecommons.org/ns#"
   xmlns:rdf="http://www.w3.org/1999/02/22-rdf-syntax-ns#"
   xmlns:svg="http://www.w3.org/2000/svg"
   xmlns="http://www.w3.org/2000/svg"
   xmlns:sodipodi="http://sodipodi.sourceforge.net/DTD/sodipodi-0.dtd"
   xmlns:inkscape="http://www.inkscape.org/namespaces/inkscape"
   width="24px"
   height="24px"
   viewBox="0 0 24 24"
   version="1.1"
   id="svg10"
   sodipodi:docname="ic-update-liliac.svg"
   inkscape:version="0.92.3 (2405546, 2018-03-11)">
  <metadata
     id="metadata16">
    <rdf:RDF>
      <cc:Work
         rdf:about="">
        <dc:format>image/svg+xml</dc:format>
        <dc:type
           rdf:resource="http://purl.org/dc/dcmitype/StillImage" />
      </cc:Work>
    </rdf:RDF>
  </metadata>
  <defs
     id="defs14" />
  <sodipodi:namedview
     pagecolor="#ffffff"
     bordercolor="#666666"
     borderopacity="1"
     objecttolerance="10"
     gridtolerance="10"
     guidetolerance="10"
     inkscape:pageopacity="0"
     inkscape:pageshadow="2"
     inkscape:window-width="1853"
     inkscape:window-height="1145"
     id="namedview12"
     showgrid="false"
     inkscape:zoom="9.8333333"
     inkscape:cx="12"
     inkscape:cy="12"
     inkscape:window-x="67"
     inkscape:window-y="27"
     inkscape:window-maximized="1"
     inkscape:current-layer="svg10" />
  <!-- Generator: Sketch 55.2 (78181) - https://sketchapp.com -->
  <title
     id="title2">Artboard</title>
  <desc
     id="desc4">Created with Sketch.</desc>
  <g
     id="Artboard"
     stroke="none"
     stroke-width="1"
     fill="none"
     fill-rule="evenodd">
    <g
       id="ic-update-liliac"
       transform="translate(2.000000, 2.000000)">
      <polygon
         id="Rectangle_4642"
         points="0 0 20 0 20 20 0 20" />
      <path
         d="M13,8.5 L18,8.5 L18,3.5 L16,3.5 L16,4.715 C13.5656847,1.94871304 9.55671298,1.2030267 6.29053814,2.90899747 C3.0243633,4.61496824 1.34594778,8.33125994 2.22552783,11.9096078 C3.10510789,15.4879556 6.31513536,18.0026378 10,18.0000301 C12.1229023,18.0058338 14.1599129,17.1621506 15.657,15.657 L14.243,14.243 C12.4656191,16.0235516 9.76616433,16.5061689 7.48194074,15.4517642 C5.19771716,14.3973595 3.81387589,12.02988 4.01596945,9.52217092 C4.21806302,7.01446183 5.96316833,4.89914079 8.38676331,4.2241341 C10.8103583,3.5491274 13.3976904,4.45780116 14.867,6.5 L13,6.5 L13,8.5 Z"
         id="Path_18962"
         fill="#B088FF"
         fill-rule="nonzero" />
    </g>
  </g>
  <path
     style="fill:#00c8fc;fill-opacity:0.31372549;stroke-width:0.10169491"
     d="M 10.76246,19.875823 C 7.5094724,19.278988 5.0201584,16.973691 4.2758418,13.868713 3.31439,9.8579376 5.550354,5.7933561 9.447307,4.4679169 12.230441,3.521312 15.361281,4.2110951 17.473455,6.2362281 L 18,6.7410742 V 6.1366388 5.5322034 h 0.966102 0.966101 V 8.0237288 10.515254 H 17.491525 15.050847 V 9.5491525 8.5830508 h 0.915255 c 0.559719,0 0.915254,-0.04066 0.915254,-0.1046707 0,-0.2330756 -1.334283,-1.4019255 -1.995683,-1.7482456 C 13.843045,6.1841975 13.119074,6.0013589 12,6.0013589 c -1.668424,0 -3.0902037,0.5941634 -4.2879998,1.7919593 -0.7601788,0.7601789 -1.3979958,1.9173515 -1.6011436,2.9049078 -0.4208153,2.045697 0.1907578,4.08712 1.667213,5.565137 2.1545616,2.15684 5.5693354,2.354888 7.9641464,0.461898 l 0.500902,-0.395939 0.68698,0.692285 0.686981,0.692287 -0.596675,0.469463 c -0.790571,0.622021 -1.951535,1.218039 -2.887594,1.482437 -0.850935,0.240354 -2.608207,0.349861 -3.37035,0.210029 z"
     id="path823"
     inkscape:connector-curvature="0" />
</svg>
